<?xml version="1.0" standalone="no"?>
<!DOCTYPE svg PUBLIC "-//W3C//DTD SVG 20010904//EN"
 "http://www.w3.org/TR/2001/REC-SVG-20010904/DTD/svg10.dtd">
<svg version="1.0" xmlns="http://www.w3.org/2000/svg"
 width="64.000000pt" height="64.000000pt" viewBox="0 0 64.000000 64.000000"
 preserveAspectRatio="xMidYMid meet">
<metadata>
Created by potrace 1.11, written by Peter Selinger 2001-2013
</metadata>
<g transform="translate(0.000000,64.000000) scale(0.100000,-0.100000)"
fill="#000000" stroke="none">
<path d="M242 513 c1 -40 -13 -115 -20 -108 -3 3 -5 24 -3 45 l3 40 -51 0
c-42 0 -53 -4 -70 -26 -12 -15 -21 -37 -21 -50 0 -29 37 -56 60 -44 10 5 21 5
26 0 6 -6 20 -4 36 4 23 12 27 12 32 0 4 -11 11 -11 32 -3 21 7 31 6 42 -4 12
-13 10 -14 -13 -9 -31 5 -45 -9 -45 -50 0 -15 -5 -30 -11 -33 -7 -5 -8 7 -4
39 8 49 4 52 -41 40 -18 -5 -21 -13 -20 -56 1 -35 6 -54 19 -63 17 -12 17 -13
-1 -17 -15 -4 -19 -16 -20 -62 -1 -53 0 -56 23 -56 21 0 26 6 31 40 4 22 11
43 16 46 6 4 7 -12 3 -40 -7 -43 -6 -46 15 -46 12 0 30 5 40 10 13 7 21 7 25
0 9 -15 68 -12 90 3 25 19 11 41 -17 26 -14 -8 -23 -8 -31 0 -8 8 -4 11 14 11
13 0 35 7 47 16 22 15 22 15 16 -25 -6 -39 -5 -41 20 -41 22 0 28 6 33 31 3
19 15 35 29 41 25 12 39 37 27 49 -4 3 -33 3 -63 -1 -30 -4 -64 -4 -75 1 -11
4 -14 8 -7 8 6 1 12 13 13 29 0 26 1 26 9 5 12 -29 52 -39 91 -23 39 16 32 36
-12 33 l-34 -2 40 12 c42 13 55 37 35 62 -20 24 -68 18 -97 -11 l-26 -26 6 46
c5 37 4 48 -9 53 -23 9 -51 -22 -35 -40 9 -12 8 -16 -7 -19 -10 -3 -26 0 -36
7 -15 12 -15 13 5 18 18 5 20 10 14 37 -5 24 -3 34 11 44 11 9 14 18 8 27 -5
8 -7 22 -6 32 5 25 -17 21 -47 -10 l-26 -28 -3 33 c-3 28 -7 32 -32 32 -25 0
-29 -4 -28 -27z m61 -91 c-8 -33 -20 -18 -15 19 3 23 7 28 13 17 4 -8 5 -24 2
-36z m-141 13 c-2 -14 -8 -28 -13 -31 -10 -6 -12 39 -2 49 13 14 20 6 15 -18z
m348 -115 c0 -5 -5 -10 -11 -10 -5 0 -7 5 -4 10 3 6 8 10 11 10 2 0 4 -4 4
-10z m-193 -37 c-16 -16 -17 -16 -17 3 0 26 11 37 24 24 7 -7 5 -16 -7 -27z
m53 -2 c-4 -25 -3 -44 3 -50 8 -8 6 -11 -6 -11 -20 0 -49 -31 -59 -63 -5 -13
-6 -8 -2 15 3 28 1 39 -12 46 -15 9 -15 10 5 17 29 9 61 44 61 67 0 10 4 18 9
18 4 0 5 -18 1 -39z m-120 -61 c-9 -6 -17 -5 -22 3 -9 15 14 29 27 16 6 -6 5
-13 -5 -19z m132 -42 c-7 -7 -12 -8 -12 -2 0 14 12 26 19 19 2 -3 -1 -11 -7
-17z"/>
</g>
</svg>
