<svg xmlns="http://www.w3.org/2000/svg" viewBox="0 0 521.13 250.7"><title>logo_bouncing</title><g id="logo"><path d="M78.7,92c1.1-.9,1.6-2.5,1.6-4.7s-.6-3.8-1.9-4.8a5.76,5.76,0,0,0-4.9-.9l-2.5,1-.1-.3,8.6-51.4-25.2-.1-1,5.3h-.1a21.57,21.57,0,0,0-15.8-6.9,28.44,28.44,0,0,0-10.6,2,32.92,32.92,0,0,0-10.1,6,47.88,47.88,0,0,0-8.5,9.4A44.51,44.51,0,0,0,2.3,59.4,51.86,51.86,0,0,0,0,74.9C0,82.1,1.9,88,5.7,92.7s9,7,15.6,7A25.46,25.46,0,0,0,35.1,96a36.83,36.83,0,0,0,9.7-8.5h.1L44.7,90c-.2,3.1.3,5.5,1.6,7.2a6.35,6.35,0,0,0,5.1,2.5,35.52,35.52,0,0,0,9.5-1.8ZM47.4,71.8a19.89,19.89,0,0,1-5.1,10.1c-2.7,2.9-5.7,4.4-9,4.4-4.7,0-7.1-3.4-7-10.3a56.67,56.67,0,0,1,1.2-11.4,63.5,63.5,0,0,1,3.3-11.2,23.54,23.54,0,0,1,5.7-8.7,10.66,10.66,0,0,1,7.7-3.4,7.8,7.8,0,0,1,7.6,4.5Z"/><path d="M95.2,99.9a35.19,35.19,0,0,0,9.2-1.8l18.2-5.9c1.1-.8,1.7-2.3,1.7-4.6a6.57,6.57,0,0,0-1.8-4.9c-1.2-1.2-2.9-1.5-5-1L115,82.8v-.1L128.8.2,97.9,0a2.22,2.22,0,0,1-.4.5l-.6.6a6.82,6.82,0,0,0-.5.7l-.6.9a10.37,10.37,0,0,0-.4,1A9.29,9.29,0,0,0,95,5a6.6,6.6,0,0,0-.1,1.4,5.14,5.14,0,0,0,1.4,3.7,4.9,4.9,0,0,0,3.6,1.4h1.6L88.4,89.7c-.5,3.4-.1,5.9,1.3,7.7A7,7,0,0,0,95.2,99.9Z"/><path d="M165.3,45.8h6.4c2.8,0,4.8-.7,6-2a7.57,7.57,0,0,0,1.8-5.1c0-3.3-2-4.9-6-5h-7.4a23.62,23.62,0,0,1,1.9-6.4,21.5,21.5,0,0,1,2.8-4.7,20.32,20.32,0,0,0,2.5-4.1,11.07,11.07,0,0,0,1.1-4.6A6.85,6.85,0,0,0,173,9.7,5.8,5.8,0,0,0,168.5,8a9.69,9.69,0,0,0-5.1,1.3,13.91,13.91,0,0,0-4,3.7c-1.2,1.6-2.3,3.3-3.4,5a46.79,46.79,0,0,1-4.4,5.8,38.13,38.13,0,0,1-5.9,5.5,25.35,25.35,0,0,1-6.6,3.4,21.77,21.77,0,0,0-5.8,3c-1.2,1-1.8,2.5-1.8,4.7,0,3.4,1.7,5.2,5.3,5.2H140l-6.9,41.1c-.8,4.4-.2,7.8,1.6,10a9.83,9.83,0,0,0,7.5,3.4,32.73,32.73,0,0,0,11.2-2.5l16.1-5.9c1.1-.8,1.6-2.3,1.6-4.6a6.57,6.57,0,0,0-1.8-4.9c-1.2-1.2-2.8-1.5-4.9-1L159,83.1V83Z"/><path d="M153.1,104.7a14.38,14.38,0,0,0-9.5,3.2c-2.7,2.1-4,5.4-4,9.7,0,3.1.7,5.4,2.2,6.9a7,7,0,0,0,5.4,2.3,12.42,12.42,0,0,0,3.3-.4,13.32,13.32,0,0,1,1.9-.5c.8,0,1.1.8,1.1,2.5a40,40,0,0,1-3.7,14,38.43,38.43,0,0,1-8.6,12.1c-3.5,3.3-7,4.9-10.6,4.9-2.7,0-4.4-1-5.1-3.1s-.8-5.1-.2-9.1l6.9-41.4-25.2-.1L99.9,148a12.92,12.92,0,0,1-4.8,8.4,12.68,12.68,0,0,1-8.1,3.2c-2.1,0-3.5-.8-4.2-2.5s-.7-4.3-.1-8l5.7-34.4c.5-3.4.1-6-1.3-7.8a6.6,6.6,0,0,0-5.5-2.7,36.17,36.17,0,0,0-9.4,1.9l-18.5,6.1a5.57,5.57,0,0,0-1.7,4.4,5.94,5.94,0,0,0,2.1,4.9,5.24,5.24,0,0,0,5,1l2.6-.8v.1l-5.3,31.6c-1.2,7.1-.4,12.4,2.6,15.9s7.4,5.2,13.4,5.3q13.65,0,26.1-11.4h.1c1.5,7.8,7.5,11.7,18.1,11.7a44.4,44.4,0,0,0,20.2-4.6,44.9,44.9,0,0,0,15.4-12.4,61.73,61.73,0,0,0,13-37.3C165.7,110,161.5,104.7,153.1,104.7Z"/><path d="M201,104.8a34.36,34.36,0,0,0-9.2,1.9l-18.3,5.9a5.52,5.52,0,0,0-1.7,4.5,5.67,5.67,0,0,0,2.1,4.7,5.24,5.24,0,0,0,5,1l2.5-.8.1.1-8.7,51.6,25.4.1,9.6-59.7c.5-3,0-5.4-1.4-7A7,7,0,0,0,201,104.8Z"/><path d="M274.1,164.1c1.7-2,2.6-3.9,2.6-5.6a4.87,4.87,0,0,0-1.2-3.4,4.24,4.24,0,0,0-3.4-1.3,9,9,0,0,0-4.1,1.4,28.77,28.77,0,0,0-4.4,3.1,27.45,27.45,0,0,1-5.2,3.1,16,16,0,0,1-6.3,1.4c-9.4,0-14.1-5.7-13.9-16.9a74.62,74.62,0,0,0,12.5-.1,69.63,69.63,0,0,0,12.6-2.3,44.45,44.45,0,0,0,11.1-4.5,22.47,22.47,0,0,0,7.8-7.2,17.56,17.56,0,0,0,3-10,14.26,14.26,0,0,0-6.5-12.3c-4.4-3-10.4-4.5-18.1-4.5-9.1,0-17.2,1.7-24.5,5.4A41,41,0,0,0,219,125.7a41.52,41.52,0,0,0-6.3,22.4,32.48,32.48,0,0,0,2.3,13,20.05,20.05,0,0,0,6.6,8.6,29.91,29.91,0,0,0,9.5,4.6,42.77,42.77,0,0,0,11.8,1.5,54.27,54.27,0,0,0,13.5-1.7,41.83,41.83,0,0,0,10.8-4.4A28.51,28.51,0,0,0,274.1,164.1Zm-29.1-42c3.4-4.6,6.9-7,10.5-7a5.35,5.35,0,0,1,4.6,2.1,8.5,8.5,0,0,1,1.7,5.4,14.53,14.53,0,0,1-5.8,12.1c-3.9,2.9-9.6,4.4-17.1,4.4A33.41,33.41,0,0,1,245,122.1Z"/><path d="M292.1,122.5a5.24,5.24,0,0,0,5,1l2.6-.8v.1l-8.6,51.5,25.2.1,6.9-41.3a14,14,0,0,1,5.4-9.4,14.54,14.54,0,0,1,9.3-3.7c2.1,0,3.6.8,4.3,2.3s.8,4.2.1,8l-5.9,35.1c-.5,3.4-.1,5.9,1.2,7.7a6.65,6.65,0,0,0,5.5,2.6,31.84,31.84,0,0,0,9.4-1.8l18.1-5.9a5.74,5.74,0,0,0,1.7-4.6,6.49,6.49,0,0,0-1.8-4.8,5.55,5.55,0,0,0-5-1.1l-2.6,1.1v-.1l5.7-33.5c1.1-6.4.2-11.3-2.8-14.7s-6.9-5-12-5.1a36.06,36.06,0,0,0-14.9,3,49.58,49.58,0,0,0-13.1,9h-.1l.2-2.1c.2-3.1-.4-5.6-1.7-7.2a6.13,6.13,0,0,0-5.2-2.5c-1.8,0-4.8.6-9.1,1.9l-18.5,6.1c-1.1.9-1.6,2.4-1.6,4.5A6.82,6.82,0,0,0,292.1,122.5Z"/><path d="M444.4,110.3c-4.4-3-10.4-4.5-18.1-4.5-9.1,0-17.2,1.7-24.5,5.4a41,41,0,0,0-17.1,15.3,42.4,42.4,0,0,0-6.3,22.4,32.48,32.48,0,0,0,2.3,13,20.05,20.05,0,0,0,6.6,8.6,28.91,28.91,0,0,0,9.5,4.6,42.77,42.77,0,0,0,11.8,1.5,54.27,54.27,0,0,0,13.5-1.7,41.83,41.83,0,0,0,10.8-4.4,26.91,26.91,0,0,0,6.9-5.7c1.7-2,2.6-3.9,2.6-5.6a4.87,4.87,0,0,0-1.2-3.4,4.24,4.24,0,0,0-3.4-1.3,9,9,0,0,0-4.1,1.4,28.77,28.77,0,0,0-4.4,3.1,27.45,27.45,0,0,1-5.2,3.1,16,16,0,0,1-6.3,1.4c-9.4,0-14.1-5.7-13.9-16.9a74.62,74.62,0,0,0,12.5-.1,69.63,69.63,0,0,0,12.6-2.3,48.58,48.58,0,0,0,11.1-4.5,22.47,22.47,0,0,0,7.8-7.2,17.56,17.56,0,0,0,3-10A13.77,13.77,0,0,0,444.4,110.3Zm-22.8,25.2c-3.9,2.9-9.6,4.4-17.1,4.4a34.43,34.43,0,0,1,6.2-17c3.4-4.6,6.9-7,10.5-7a5.35,5.35,0,0,1,4.6,2.1,8.5,8.5,0,0,1,1.7,5.4A14.48,14.48,0,0,1,421.6,135.5Z"/><path d="M514,105.6c-4.4,0-8.7,2-12.9,5.9s-8.1,9.5-11.6,16.7h-.4l2.6-12.4c.5-3,.1-5.4-1.3-7.1a6.78,6.78,0,0,0-5.5-2.6,35.1,35.1,0,0,0-9.2,1.9l-18.3,5.9c-1.1.9-1.6,2.4-1.6,4.5a5.67,5.67,0,0,0,2.1,4.7,5.24,5.24,0,0,0,5,1l2.6-.8v.1L456.9,175l25.2.1,4.8-27.8a31,31,0,0,1,2.2-7.4,14.83,14.83,0,0,1,3.8-5.1,20.19,20.19,0,0,1,5.1-3.3,61.56,61.56,0,0,1,7.2-2.6c10.2-3.1,15.5-8.1,15.9-14.9C521.4,108.4,519.1,105.6,514,105.6Z"/><path d="M294.8,228.8a3.84,3.84,0,0,0-2.8,1.3,12.69,12.69,0,0,0-2.5,3.6h-.1l.5-2.7a1.71,1.71,0,0,0-.3-1.5,1.43,1.43,0,0,0-1.2-.6,6.82,6.82,0,0,0-2,.4l-4,1.3a1.33,1.33,0,0,0-.3,1,1.23,1.23,0,0,0,.5,1,1.39,1.39,0,0,0,1.1.2l.6-.2h0l-1.8,11.2H288l1-6.1a6,6,0,0,1,.5-1.6,4.44,4.44,0,0,1,.8-1.1,4.13,4.13,0,0,1,1.1-.7,9.12,9.12,0,0,1,1.6-.6c2.2-.7,3.4-1.8,3.4-3.3A1.43,1.43,0,0,0,294.8,228.8Z"/><path d="M323.3,238.2a3.35,3.35,0,0,1-1.1,2,2.5,2.5,0,0,1-1.9.8,1.05,1.05,0,0,1-.9-.5,2.37,2.37,0,0,1,0-1.7l1.2-7.6a2.29,2.29,0,0,0-.3-1.7,1.43,1.43,0,0,0-1.2-.6,6.82,6.82,0,0,0-2,.4l-4,1.3a1.33,1.33,0,0,0-.4,1,1.37,1.37,0,0,0,.4,1.1,1.31,1.31,0,0,0,1.1.2l.5-.2h0l-1.2,7.3a4.07,4.07,0,0,0,.6,3.2,3.31,3.31,0,0,0,2.6,1.1,8.24,8.24,0,0,0,5.8-2.7h0a11.39,11.39,0,0,1-.6,2.9,4.44,4.44,0,0,1-1.2,1.9,6.53,6.53,0,0,1-1.5,1,4.67,4.67,0,0,1-1.7.3,7.47,7.47,0,0,1-2-.3,7,7,0,0,0-1.4-.3,1,1,0,0,0-1.1,1.1,2.07,2.07,0,0,0,1.3,1.8,7,7,0,0,0,3.5.7,12.65,12.65,0,0,0,2.8-.3,8.72,8.72,0,0,0,2.5-1,7.94,7.94,0,0,0,2.2-1.9,13.94,13.94,0,0,0,1.7-3,22.12,22.12,0,0,0,1.2-4.3l1.8-11h-5.5Z"/><path d="M347.4,240.3l-.6.2h0l1.9-11.2h-5.5l-1.5,9a3.35,3.35,0,0,1-1.1,2,2.5,2.5,0,0,1-1.9.8,1.05,1.05,0,0,1-.9-.5,2.37,2.37,0,0,1,0-1.7l1.2-7.6a2.29,2.29,0,0,0-.3-1.7,1.43,1.43,0,0,0-1.2-.6,6.82,6.82,0,0,0-2,.4l-4,1.3a1.49,1.49,0,0,0-.3,1,1.23,1.23,0,0,0,.5,1,1.09,1.09,0,0,0,1.1.2l.6-.2h0l-1.2,7.3a4.07,4.07,0,0,0,.6,3.2,3.31,3.31,0,0,0,2.6,1.1,8.07,8.07,0,0,0,5.8-2.7h0l-.1.5a2.08,2.08,0,0,0,.4,1.5,1.61,1.61,0,0,0,1.1.5,5.84,5.84,0,0,0,2-.4l4-1.3a1.33,1.33,0,0,0,.4-1,1.23,1.23,0,0,0-.5-1A1.38,1.38,0,0,0,347.4,240.3Z"/><path d="M281.5,224.4v-.2a5.07,5.07,0,0,1-.2-.9,2.09,2.09,0,0,0-.4-.6.91.91,0,0,0-.7-.3.75.75,0,0,0-.5.1l-.6.3a1.38,1.38,0,0,0-.4.3H267.2a2,2,0,0,0-.6,1.4,1,1,0,0,0,.3.8,1.14,1.14,0,0,0,.8.3h.5L266,241.5h-.4a1.5,1.5,0,0,0-1.1.4,1.66,1.66,0,0,0-.5,1.2,1.9,1.9,0,0,0,.3.9H273a2,2,0,0,0,.6-1.4,1,1,0,0,0-.3-.8,1.14,1.14,0,0,0-.8-.3h-.6l1-6.8h2.7a1.8,1.8,0,0,1,1.1.3,6,6,0,0,1,.6.7,1.18,1.18,0,0,0,.5.5c.1.1.3.1.6.1a1,1,0,0,0,1.1-1.1,16.54,16.54,0,0,0-.7-3.1c-.1-.4-.2-.7-.4-.8s-.3-.2-.6-.2-.3,0-.4.1-.2.1-.3.2l-.2.2c-.1.1-.1.2-.2.3a.37.37,0,0,0-.1.3h-3.3l1-6.7h3.4a3,3,0,0,1,1,.2c.3.2.5.3.6.5s.3.5.5.9v.2h0a5.74,5.74,0,0,1,.4.7c.1.1.2.3.4.4s.3.2.5.2a1,1,0,0,0,.8-.3,1.22,1.22,0,0,0,.3-.9c0-.2-.1-.7-.2-1.4Z"/><path d="M366.9,240.2l-.6.2h0l1.2-7.3a4,4,0,0,0-.6-3.2,3.31,3.31,0,0,0-2.6-1.1,6.57,6.57,0,0,0-3.2.7,8.56,8.56,0,0,0-2.8,2h0V231a2.54,2.54,0,0,0-.4-1.6,1.27,1.27,0,0,0-1.1-.5,6.82,6.82,0,0,0-2,.4l-4,1.3a1.33,1.33,0,0,0-.3,1,1.23,1.23,0,0,0,.5,1,1.39,1.39,0,0,0,1.1.2l.6-.2h0l-1.8,11.2h5.5l1.5-9a2.84,2.84,0,0,1,1.2-2,3.41,3.41,0,0,1,2-.8c.5,0,.8.2.9.5a2.37,2.37,0,0,1,0,1.7l-1.2,7.6a2.29,2.29,0,0,0,.3,1.7,1.43,1.43,0,0,0,1.2.6,6.8,6.8,0,0,0,2.1-.4l3.9-1.3a1.33,1.33,0,0,0,.4-1,1.16,1.16,0,0,0-.4-1A2.49,2.49,0,0,0,366.9,240.2Z"/><path d="M381.3,230.4h0a4.69,4.69,0,0,0-3.5-1.5,6.19,6.19,0,0,0-2.9.7,8.25,8.25,0,0,0-2.6,2,9.06,9.06,0,0,0-1.9,3.2,11.41,11.41,0,0,0-.7,4.1,5.49,5.49,0,0,0,1.3,3.8,4.33,4.33,0,0,0,3.4,1.5,5.57,5.57,0,0,0,3-.8,7.2,7.2,0,0,0,2-1.8h.1a11.39,11.39,0,0,1-.6,2.9,4.44,4.44,0,0,1-1.2,1.9,6.53,6.53,0,0,1-1.5,1,4.67,4.67,0,0,1-1.7.3,7.47,7.47,0,0,1-2-.3,7,7,0,0,0-1.4-.3,1,1,0,0,0-1.1,1.1,2.07,2.07,0,0,0,1.3,1.8,6.87,6.87,0,0,0,3.4.7c5.8,0,9.3-3.5,10.4-10.5l1.8-11h-5.5Zm-1.3,7.8a4.19,4.19,0,0,1-1.1,2.2,2.8,2.8,0,0,1-1.9.9q-1.5,0-1.5-2.4a19.52,19.52,0,0,1,.2-2.3,21.72,21.72,0,0,1,.7-2.4,6.66,6.66,0,0,1,1.2-2,2.11,2.11,0,0,1,1.7-.8,1.76,1.76,0,0,1,1.7,1Z"/><path d="M310.3,229.9a6.65,6.65,0,0,0-3.9-1,11.49,11.49,0,0,0-5.3,1.2,9.14,9.14,0,0,0-3.7,3.3,9,9,0,0,0-1.3,4.9,7.78,7.78,0,0,0,.5,2.8A4.5,4.5,0,0,0,298,243a5.12,5.12,0,0,0,2.1,1,10.32,10.32,0,0,0,2.6.3,9.25,9.25,0,0,0,2.9-.4,8.39,8.39,0,0,0,3.8-2.2,1.93,1.93,0,0,0,.6-1.2,1,1,0,0,0-1-1,2.3,2.3,0,0,0-.9.3,6.07,6.07,0,0,0-1,.7,10.54,10.54,0,0,1-1.1.7,3.53,3.53,0,0,1-1.4.3c-2.1,0-3.1-1.2-3-3.7a12.19,12.19,0,0,0,2.7,0,25.58,25.58,0,0,0,2.7-.5,13.32,13.32,0,0,0,2.4-1,4.36,4.36,0,0,0,1.7-1.6,4,4,0,0,0,.6-2.2A2.81,2.81,0,0,0,310.3,229.9Zm-4.9,5.5a6.28,6.28,0,0,1-3.7,1,7.12,7.12,0,0,1,1.3-3.7,2.94,2.94,0,0,1,2.3-1.5,1.53,1.53,0,0,1,1,.4,2.14,2.14,0,0,1,.4,1.2A3.47,3.47,0,0,1,305.4,235.4Z"/></g><g id="gold"><rect class="svg--gold" x="58.1" y="235.7" width="189.7" height="2"/><rect class="svg--gold" x="402.9" y="235.7" width="73.5" height="2"/><rect class="svg--gold"  x="146.9" y="188.6" width="5.1" height="24.7"/><path class="svg--gold" d="M441.6,206.5l2.4-2.9,6.6,9.7h6.1l-9.3-13.5,8.3-11.2h-5.8l-6.5,8.8a19.67,19.67,0,0,0-2.1,3.8c.1-1.2.3-2.9.3-4.1v-8.5h-5.1v24.7h5.1Z"/><rect class="svg--gold" x="242.1" y="188.6" width="5.1" height="24.7"/><path class="svg--gold" d="M414,207.2h1.7a7.57,7.57,0,0,0,1.5-.1l4.1,6.2h5.9l-5.1-7.7a7.81,7.81,0,0,0,4.8-7.7c0-6-4.1-9.3-11-9.3h-6.8v24.7h5.1v-6.1Zm0-14.1h1.6c4.1,0,6,1.4,6,4.9s-1.8,4.8-6,4.8H414Z"/><path class="svg--gold" d="M218.3,206.5l2.4-2.9,6.6,9.7h6.1l-9.3-13.5,8.3-11.2h-5.8l-6.5,8.8a19.67,19.67,0,0,0-2.1,3.8c.1-1.2.3-2.9.3-4.1v-8.5h-5.1v24.7h5.1Z"/><polygon class="svg--gold" points="192.1 213.3 197.2 213.3 197.2 193.1 204.2 193.1 204.2 188.6 185 188.6 185 193.1 192.1 193.1 192.1 213.3"/><path class="svg--gold" d="M169.4,209.1c-2.5,0-3.9-1.3-5-3.1l-4.1,2.4c1.5,2.9,4.5,5.2,9.3,5.2s8.4-2.5,8.4-7.1c0-4.2-2.4-6.1-6.8-8l-1.3-.5c-2.2-.9-3.1-1.6-3.1-3.1a2.21,2.21,0,0,1,2.4-2.2c1.5,0,2.4.6,3.3,2.2l4-2.5a7.63,7.63,0,0,0-7.2-4.1c-4.5,0-7.4,2.9-7.4,6.7,0,4.1,2.4,6.1,6.1,7.7l1.3.5c2.3,1,3.7,1.6,3.7,3.4C172.9,208.1,171.5,209.1,169.4,209.1Z"/><polygon class="svg--gold" points="323.6 188.6 318.5 188.6 318.5 213.3 334.8 213.3 334.8 208.9 323.6 208.9 323.6 188.6"/><path class="svg--gold" d="M356.7,201.7l-12.2-13.4h-.4v24.9H349v-9.3c0-1.7-.2-4.3-.2-4.3s1.5,2.2,2.6,3.5l4.9,5.5h.5l4.9-5.5a30.65,30.65,0,0,0,2.6-3.5s-.2,2.6-.2,4.3v9.3H369V188.3h-.4Z"/><path class="svg--gold" d="M388.6,188.4l-10.9,24.9h4.9l1.2-2.8h10l1.2,2.8h5.3L389,188.4Zm3.4,17.9h-6.5l1.8-4.3c.7-1.7,1.5-4.4,1.5-4.4s.8,2.7,1.5,4.4Z"/><path class="svg--gold" d="M124.3,207.2H126a7.57,7.57,0,0,0,1.5-.1l4.1,6.2h5.9l-5.1-7.7a7.81,7.81,0,0,0,4.8-7.7c0-6-4.1-9.3-11-9.3h-6.8v24.7h5.1v-6.1Zm0-14.1h1.6c4.1,0,6,1.4,6,4.9s-1.8,4.8-6,4.8h-1.6Z"/><polygon class="svg--gold" points="463.2 188.6 463.2 193.1 470.2 193.1 470.2 213.3 475.3 213.3 475.3 193.1 482.3 193.1 482.3 188.6 463.2 188.6"/><polygon class="svg--gold" points="93.1 205.8 103.7 205.8 103.7 213.3 108.8 213.3 108.8 188.6 103.7 188.6 103.7 201.3 93.1 201.3 93.1 188.6 88 188.6 88 213.3 93.1 213.3 93.1 205.8"/><path class="svg--gold" d="M296,188.6h-7.6v24.7H296c7.6,0,13-5,13-12.3S303.6,188.6,296,188.6Zm-.2,20.3h-2.2V193.1h2.2c5.5,0,8,3.3,8,7.9S301.2,208.9,295.8,208.9Z"/><path class="svg--gold" d="M68.7,213.6A11.55,11.55,0,0,0,79,208.2l-4-2.7a7.12,7.12,0,0,1-6.4,3.6c-4.5,0-7.5-3.5-7.5-8.1s3-8.1,7.5-8.1a6.78,6.78,0,0,1,6,3.2l3.9-2.8c-2.2-3.4-5.4-5-9.9-5a12.39,12.39,0,0,0-12.7,12.6A12.55,12.55,0,0,0,68.7,213.6Z"/><path class="svg--gold" d="M273.2,199c0,1.7.3,4.5.3,4.5s-1.7-2.2-2.9-3.4l-12.5-11.7h-.5v24.9h4.8V203a38.94,38.94,0,0,0-.4-4.5s1.7,2.2,2.9,3.4l12.5,11.7h.5V188.7h-4.8V199Z"/></g><g id="dot"><path class="svg--dot" d="M210.5,77.3c-2.3-1.8-5.7-2.8-10.4-2.8-4.4,0-8,1.1-10.7,3.5a10.64,10.64,0,0,0-4.1,8.6c0,7,4.5,10.5,13.6,10.5,4.5,0,8.2-1.1,10.9-3.5a11.14,11.14,0,0,0,4.1-8.7A9.59,9.59,0,0,0,210.5,77.3Z"/></g></svg>