<svg version="1.1" id="Logo" xmlns="http://www.w3.org/2000/svg" xmlns:xlink="http://www.w3.org/1999/xlink" x="0px" y="0px"
    viewBox="0 0 521.1 250.8" style="enable-background:new 0 0 521.1 250.8;" xml:space="preserve">
    <g>
        <rect x="58.1" y="235.7" class="svg--gold" width="189.7" height="2" />
        <rect x="402.9" y="235.7" class="svg--gold" width="73.5" height="2" />
        <rect x="146.9" y="188.6" class="svg--gold" width="5.1" height="24.7" />
        <path class="svg--gold" d="M441.6,206.5l2.4-2.9l6.6,9.7h6.1l-9.3-13.5l8.3-11.2h-5.8l-6.5,8.8c-0.8,1-1.5,2.5-2.1,3.8
		c0.1-1.2,0.3-2.9,0.3-4.1v-8.5h-5.1v24.7h5.1V206.5z" />
        <rect x="242.1" y="188.6" class="svg--gold" width="5.1" height="24.7" />
        <path class="svg--gold" d="M414,207.2h1.7c0.5,0,1,0,1.5-0.1l4.1,6.2h5.9l-5.1-7.7c3-1.4,4.8-3.8,4.8-7.7c0-6-4.1-9.3-11-9.3h-6.8v24.7
		h5.1V207.2z M414,193.1h1.6c4.1,0,6,1.4,6,4.9c0,3.5-1.8,4.8-6,4.8H414V193.1z" />
        <path class="svg--gold" d="M218.3,206.5l2.4-2.9l6.6,9.7h6.1l-9.3-13.5l8.3-11.2h-5.8l-6.5,8.8c-0.8,1-1.5,2.5-2.1,3.8
		c0.1-1.2,0.3-2.9,0.3-4.1v-8.5h-5.1v24.7h5.1V206.5z" />
        <polygon class="svg--gold" points="192.1,213.3 197.2,213.3 197.2,193.1 204.2,193.1 204.2,188.6 185,188.6 185,193.1 192.1,193.1 	"
        />
        <path class="svg--gold" d="M169.4,209.1c-2.5,0-3.9-1.3-5-3.1l-4.1,2.4c1.5,2.9,4.5,5.2,9.3,5.2c4.8,0,8.4-2.5,8.4-7.1
		c0-4.2-2.4-6.1-6.8-8l-1.3-0.5c-2.2-0.9-3.1-1.6-3.1-3.1c0-1.2,0.9-2.2,2.4-2.2c1.5,0,2.4,0.6,3.3,2.2l4-2.5
		c-1.7-2.9-4-4.1-7.2-4.1c-4.5,0-7.4,2.9-7.4,6.7c0,4.1,2.4,6.1,6.1,7.7l1.3,0.5c2.3,1,3.7,1.6,3.7,3.4
		C172.9,208.1,171.5,209.1,169.4,209.1z" />
        <polygon class="svg--gold" points="323.6,188.6 318.5,188.6 318.5,213.3 334.8,213.3 334.8,208.9 323.6,208.9 	" />
        <path class="svg--gold" d="M356.7,201.7l-12.2-13.4h-0.4v24.9h4.9v-9.3c0-1.7-0.2-4.3-0.2-4.3s1.5,2.2,2.6,3.5l4.9,5.5h0.5l4.9-5.5
		c1.2-1.3,2.6-3.5,2.6-3.5s-0.2,2.6-0.2,4.3v9.3h4.9v-24.9h-0.4L356.7,201.7z" />
        <path class="svg--gold" d="M388.6,188.4l-10.9,24.9h4.9l1.2-2.8h10l1.2,2.8h5.3L389,188.4H388.6z M392,206.3h-6.5l1.8-4.3
		c0.7-1.7,1.5-4.4,1.5-4.4s0.8,2.7,1.5,4.4L392,206.3z" />
        <path class="svg--gold" d="M124.3,207.2h1.7c0.5,0,1,0,1.5-0.1l4.1,6.2h5.9l-5.1-7.7c3-1.4,4.8-3.8,4.8-7.7c0-6-4.1-9.3-11-9.3h-6.8v24.7
		h5.1V207.2z M124.3,193.1h1.6c4.1,0,6,1.4,6,4.9c0,3.5-1.8,4.8-6,4.8h-1.6V193.1z" />
        <polygon class="svg--gold" points="463.2,188.6 463.2,193.1 470.2,193.1 470.2,213.3 475.3,213.3 475.3,193.1 482.3,193.1 482.3,188.6
		" />
        <polygon class="svg--gold" points="93.1,205.8 103.7,205.8 103.7,213.3 108.8,213.3 108.8,188.6 103.7,188.6 103.7,201.3 93.1,201.3
		93.1,188.6 88,188.6 88,213.3 93.1,213.3 	" />
        <path class="svg--gold" d="M296,188.6h-7.6v24.7h7.6c7.6,0,13-5,13-12.3S303.6,188.6,296,188.6z M295.8,208.9h-2.2v-15.8h2.2
		c5.5,0,8,3.3,8,7.9S301.2,208.9,295.8,208.9z" />
        <path class="svg--gold" d="M68.7,213.6c4.8,0,8.2-2.1,10.3-5.4l-4-2.7c-1.4,2.1-3.2,3.6-6.4,3.6c-4.5,0-7.5-3.5-7.5-8.1s3-8.1,7.5-8.1
		c2.8,0,4.8,1.3,6,3.2l3.9-2.8c-2.2-3.4-5.4-5-9.9-5c-7.1,0-12.7,5.3-12.7,12.6S61.6,213.6,68.7,213.6z" />
        <path class="svg--gold" d="M273.2,199c0,1.7,0.3,4.5,0.3,4.5s-1.7-2.2-2.9-3.4l-12.5-11.7h-0.5v24.9h4.8V203c0-1.8-0.4-4.5-0.4-4.5
		s1.7,2.2,2.9,3.4l12.5,11.7h0.5v-24.9h-4.8V199z" />
    </g>
    <g>
        <path class="svg--white" d="M78.7,92c1.1-0.9,1.6-2.5,1.6-4.7c0-2.2-0.6-3.8-1.9-4.8c-1.3-1-2.9-1.3-4.9-0.9L71,82.6l-0.1-0.3l8.6-51.4
		l-25.2-0.1l-1,5.3l-0.1,0c-4.3-4.5-9.6-6.8-15.8-6.9c-3.5,0-7.1,0.6-10.6,2c-3.6,1.3-6.9,3.3-10.1,6c-3.2,2.7-6,5.8-8.5,9.4
		c-2.5,3.6-4.4,7.8-5.9,12.8C0.8,64.2,0,69.4,0,74.9C0,82.1,1.9,88,5.7,92.7c3.8,4.7,9,7,15.6,7c5.2,0,9.8-1.2,13.8-3.7
		c4-2.5,7.2-5.3,9.7-8.5l0.1,0l-0.2,2.5c-0.2,3.1,0.3,5.5,1.6,7.2c1.3,1.6,3,2.5,5.1,2.5c2.3,0,5.5-0.6,9.5-1.8L78.7,92z M47.4,71.8
		c-0.7,3.8-2.4,7.2-5.1,10.1c-2.7,2.9-5.7,4.4-9,4.4c-4.7,0-7.1-3.4-7-10.3c0-3.7,0.4-7.5,1.2-11.4c0.8-4,1.9-7.7,3.3-11.2
		c1.4-3.5,3.3-6.5,5.7-8.7c2.3-2.3,4.9-3.4,7.7-3.4c3.6,0,6.1,1.5,7.6,4.5L47.4,71.8z" />
        <path class="svg--white" d="M95.2,99.9c2.1,0,5.2-0.6,9.2-1.8l18.2-5.9c1.1-0.8,1.7-2.3,1.7-4.6c0-2.1-0.6-3.7-1.8-4.9
		c-1.2-1.2-2.9-1.5-5-1l-2.5,1.1l0-0.1l13.8-82.5L97.9,0c0,0-0.1,0.2-0.4,0.5C97.2,0.8,97,1,96.9,1.1c-0.1,0.1-0.3,0.4-0.5,0.7
		c-0.2,0.3-0.4,0.6-0.6,0.9c-0.1,0.3-0.3,0.6-0.4,1C95.2,4.2,95.1,4.6,95,5c-0.1,0.5-0.1,0.9-0.1,1.4c0,1.5,0.5,2.8,1.4,3.7
		c0.9,0.9,2.1,1.4,3.6,1.4l1.6,0L88.4,89.7c-0.5,3.4-0.1,5.9,1.3,7.7C91.1,99,92.9,99.9,95.2,99.9z" />
        <path class="svg--white" d="M165.3,45.8l6.4,0c2.8,0,4.8-0.7,6-2c1.2-1.4,1.8-3.1,1.8-5.1c0-3.3-2-4.9-6-5l-7.4,0c0.3-2.2,1-4.4,1.9-6.4
		c0.9-2,1.9-3.6,2.8-4.7c0.9-1.2,1.8-2.5,2.5-4.1c0.7-1.5,1.1-3.1,1.1-4.6c0-1.6-0.5-3-1.4-4.2c-1-1.1-2.5-1.7-4.5-1.7
		c-1.9,0-3.6,0.4-5.1,1.3c-1.5,0.9-2.8,2.1-4,3.7c-1.2,1.6-2.3,3.3-3.4,5c-1.1,1.8-2.6,3.7-4.4,5.8c-1.8,2.1-3.8,3.9-5.9,5.5
		c-1.7,1.3-3.9,2.4-6.6,3.4c-2.6,1-4.6,2-5.8,3c-1.2,1-1.8,2.5-1.8,4.7c0,3.4,1.7,5.2,5.3,5.2l3.2,0l-6.9,41.1
		c-0.8,4.4-0.2,7.8,1.6,10c1.9,2.2,4.4,3.3,7.5,3.4c3,0,6.7-0.8,11.2-2.5l16.1-5.9c1.1-0.8,1.6-2.3,1.6-4.6c0-2.1-0.6-3.7-1.8-4.9
		c-1.2-1.2-2.8-1.5-4.9-1l-5.4,1.9V83L165.3,45.8z" />
        <path class="svg--white" d="M153.1,104.7c-3.7,0-6.8,1-9.5,3.2c-2.7,2.1-4,5.4-4,9.7c0,3.1,0.7,5.4,2.2,6.9c1.5,1.6,3.3,2.3,5.4,2.3
		c1.1,0,2.2-0.1,3.3-0.4c1-0.3,1.7-0.5,1.9-0.5c0.8,0,1.1,0.8,1.1,2.5c-0.3,4.5-1.5,9.2-3.7,14c-2.2,4.8-5.1,8.8-8.6,12.1
		c-3.5,3.3-7,4.9-10.6,4.9c-2.7,0-4.4-1-5.1-3.1c-0.8-2-0.8-5.1-0.2-9.1l6.9-41.4l-25.2-0.1L99.9,148c-0.5,3.4-2.1,6.2-4.8,8.4
		c-2.7,2.2-5.4,3.2-8.1,3.2c-2.1,0-3.5-0.8-4.2-2.5c-0.7-1.7-0.7-4.3-0.1-8l5.7-34.4c0.5-3.4,0.1-6-1.3-7.8
		c-1.4-1.8-3.2-2.7-5.5-2.7c-2,0-5.1,0.6-9.4,1.9l-18.5,6.1c-1.1,1-1.7,2.4-1.7,4.4c0,2.1,0.7,3.8,2.1,4.9c1.4,1.2,3.1,1.5,5,1
		l2.6-0.8v0.1l-5.3,31.6c-1.2,7.1-0.4,12.4,2.6,15.9c2.9,3.5,7.4,5.2,13.4,5.3c9.1,0,17.8-3.8,26.1-11.4l0.1,0
		c1.5,7.8,7.5,11.7,18.1,11.7c7.3,0,14-1.5,20.2-4.6c6.2-3.1,11.4-7.3,15.4-12.4c4.1-5.2,7.3-11,9.5-17.4c2.3-6.5,3.5-13.1,3.5-19.9
		C165.7,110,161.5,104.7,153.1,104.7z" />
        <path class="svg--white" d="M210.5,77.3c-2.3-1.8-5.7-2.8-10.4-2.8c-4.4,0-8,1.1-10.7,3.5c-2.8,2.3-4.1,5.2-4.1,8.6
		c0,7,4.5,10.5,13.6,10.5c4.5,0,8.2-1.1,10.9-3.5c2.7-2.3,4.1-5.3,4.1-8.7C213.8,81.6,212.7,79.1,210.5,77.3z" />
        <path class="svg--white" d="M201,104.8c-2,0-5,0.6-9.2,1.9l-18.3,5.9c-1.1,0.9-1.7,2.4-1.7,4.5c0,2,0.7,3.6,2.1,4.7c1.4,1.2,3.1,1.5,5,1
		l2.5-0.8l0.1,0.1l-8.7,51.6l25.4,0.1l9.6-59.7c0.5-3,0-5.4-1.4-7C205.1,105.6,203.2,104.8,201,104.8z" />
        <path class="svg--white" d="M274.1,164.1c1.7-2,2.6-3.9,2.6-5.6c0-1.4-0.4-2.5-1.2-3.4c-0.8-0.9-1.9-1.3-3.4-1.3c-1.1,0-2.5,0.5-4.1,1.4
		c-1.6,0.9-3.1,2-4.4,3.1c-1.4,1.1-3.1,2.1-5.2,3.1c-2.1,0.9-4.2,1.4-6.3,1.4c-9.4,0-14.1-5.7-13.9-16.9c4.1,0.3,8.3,0.3,12.5-0.1
		c4.2-0.4,8.4-1.1,12.6-2.3c4.2-1.1,7.8-2.6,11.1-4.5c3.2-1.8,5.8-4.2,7.8-7.2c2-3,3-6.3,3-10c0-5.2-2.2-9.3-6.5-12.3
		c-4.4-3-10.4-4.5-18.1-4.5c-9.1,0-17.2,1.7-24.5,5.4c-7.3,3.6-13,8.7-17.1,15.3c-4.2,6.6-6.2,14-6.3,22.4c0,5,0.7,9.3,2.3,13
		c1.6,3.7,3.8,6.6,6.6,8.6c2.9,2.1,6,3.6,9.5,4.6c3.5,1,7.4,1.5,11.8,1.5c4.7,0,9.2-0.6,13.5-1.7c4.3-1.2,7.9-2.6,10.8-4.4
		C270.1,168,272.3,166.1,274.1,164.1z M245,122.1c3.4-4.6,6.9-7,10.5-7c2,0,3.6,0.7,4.6,2.1c1.1,1.4,1.7,3.2,1.7,5.4
		c0,5.1-2,9.2-5.8,12.1c-3.9,2.9-9.6,4.4-17.1,4.4C239.5,132.4,241.6,126.8,245,122.1z" />
        <path class="svg--white" d="M292.1,122.5c1.4,1.2,3.1,1.5,5,1l2.6-0.8v0.1l-8.6,51.5l25.2,0.1l6.9-41.3c0.5-3.8,2.3-6.9,5.4-9.4
		c3-2.5,6.2-3.7,9.3-3.7c2.1,0,3.6,0.8,4.3,2.3c0.7,1.5,0.8,4.2,0.1,8l-5.9,35.1c-0.5,3.4-0.1,5.9,1.2,7.7c1.3,1.7,3.2,2.6,5.5,2.6
		c2.5,0,5.7-0.6,9.4-1.8l18.1-5.9c1.1-0.9,1.7-2.5,1.7-4.6c0-2-0.6-3.6-1.8-4.8c-1.2-1.1-2.9-1.5-5-1.1l-2.6,1.1l0-0.1l5.7-33.5
		c1.1-6.4,0.2-11.3-2.8-14.7c-2.9-3.3-6.9-5-12-5.1c-5.5,0-10.4,1-14.9,3c-4.4,2-8.8,5-13.1,9h-0.1l0.2-2.1c0.2-3.1-0.4-5.6-1.7-7.2
		c-1.3-1.7-3-2.5-5.2-2.5c-1.8,0-4.8,0.6-9.1,1.9l-18.5,6.1c-1.1,0.9-1.6,2.4-1.6,4.5C290,119.7,290.7,121.3,292.1,122.5z"
        />
        <path class="svg--white" d="M444.4,110.3c-4.4-3-10.4-4.5-18.1-4.5c-9.1,0-17.2,1.7-24.5,5.4c-7.3,3.6-13,8.7-17.1,15.3
		c-4.1,6.6-6.2,14-6.3,22.4c0,5,0.7,9.3,2.3,13c1.6,3.7,3.8,6.6,6.6,8.6c2.8,2.1,6,3.6,9.5,4.6c3.5,1,7.4,1.5,11.8,1.5
		c4.7,0,9.2-0.6,13.5-1.7c4.3-1.2,7.9-2.6,10.8-4.4c2.9-1.8,5.2-3.6,6.9-5.7c1.7-2,2.6-3.9,2.6-5.6c0-1.4-0.4-2.5-1.2-3.4
		c-0.8-0.9-1.9-1.3-3.4-1.3c-1.1,0-2.5,0.5-4.1,1.4c-1.6,0.9-3.1,2-4.4,3.1c-1.4,1.1-3.1,2.1-5.2,3.1c-2.1,0.9-4.2,1.4-6.3,1.4
		c-9.4,0-14.1-5.7-13.9-16.9c4.1,0.3,8.3,0.3,12.5-0.1c4.2-0.4,8.4-1.1,12.6-2.3c4.2-1.2,7.8-2.6,11.1-4.5c3.2-1.8,5.8-4.2,7.8-7.2
		c2-3,3-6.3,3-10C451,117.4,448.8,113.3,444.4,110.3z M421.6,135.5c-3.9,2.9-9.6,4.4-17.1,4.4c0.7-6.7,2.8-12.3,6.2-17
		c3.4-4.6,6.9-7,10.5-7c2,0,3.6,0.7,4.6,2.1c1.1,1.4,1.7,3.2,1.7,5.4C427.5,128.5,425.5,132.5,421.6,135.5z" />
        <path class="svg--white" d="M514,105.6c-4.4,0-8.7,2-12.9,5.9c-4.2,4-8.1,9.5-11.6,16.7l-0.4,0l2.6-12.4c0.5-3,0.1-5.4-1.3-7.1
		c-1.4-1.7-3.2-2.6-5.5-2.6c-1.9,0-5,0.6-9.2,1.9l-18.3,5.9c-1.1,0.9-1.6,2.4-1.6,4.5c0,2,0.7,3.6,2.1,4.7c1.4,1.2,3.1,1.5,5,1
		l2.6-0.8v0.1l-8.6,51.6l25.2,0.1l4.8-27.8c0.5-2.9,1.3-5.4,2.2-7.4c0.9-2,2.2-3.7,3.8-5.1c1.6-1.4,3.3-2.5,5.1-3.3
		c1.8-0.8,4.2-1.7,7.2-2.6c10.2-3.1,15.5-8.1,15.9-14.9C521.4,108.4,519.1,105.6,514,105.6z" />
        <path class="svg--white" d="M294.8,228.8c-1,0-1.9,0.4-2.8,1.3c-0.9,0.9-1.8,2.1-2.5,3.6h-0.1l0.5-2.7c0.1-0.7,0-1.2-0.3-1.5
		c-0.3-0.4-0.7-0.6-1.2-0.6c-0.4,0-1.1,0.1-2,0.4l-4,1.3c-0.2,0.2-0.3,0.5-0.3,1c0,0.4,0.2,0.8,0.5,1c0.3,0.2,0.7,0.3,1.1,0.2
		l0.6-0.2v0l-1.8,11.2h5.5l1-6.1c0.1-0.6,0.3-1.2,0.5-1.6c0.2-0.4,0.5-0.8,0.8-1.1c0.3-0.3,0.7-0.5,1.1-0.7c0.4-0.2,0.9-0.4,1.6-0.6
		c2.2-0.7,3.4-1.8,3.4-3.3C296.4,229.4,295.9,228.8,294.8,228.8z" />
        <path class="svg--white" d="M323.3,238.2c-0.1,0.8-0.5,1.4-1.1,2c-0.6,0.6-1.2,0.8-1.9,0.8c-0.4,0-0.7-0.2-0.9-0.5c-0.2-0.3-0.2-0.9,0-1.7
		l1.2-7.6c0.1-0.7,0-1.3-0.3-1.7c-0.3-0.4-0.7-0.6-1.2-0.6c-0.4,0-1.1,0.1-2,0.4l-4,1.3c-0.2,0.2-0.4,0.5-0.4,1s0.1,0.8,0.4,1.1
		c0.3,0.2,0.6,0.3,1.1,0.2l0.5-0.2v0l-1.2,7.3c-0.2,1.4,0,2.4,0.6,3.2c0.6,0.7,1.5,1.1,2.6,1.1c2,0,4-0.9,5.8-2.7l0,0
		c-0.1,1.1-0.3,2.1-0.6,2.9c-0.3,0.8-0.7,1.5-1.2,1.9c-0.5,0.4-1,0.8-1.5,1c-0.5,0.2-1.1,0.3-1.7,0.3c-0.6,0-1.3-0.1-2-0.3
		c-0.7-0.2-1.2-0.3-1.4-0.3c-0.3,0-0.6,0.1-0.8,0.3c-0.2,0.2-0.3,0.5-0.3,0.8c0,0.7,0.4,1.3,1.3,1.8c0.9,0.5,2,0.7,3.5,0.7
		c1,0,1.9-0.1,2.8-0.3c0.8-0.2,1.7-0.5,2.5-1c0.8-0.5,1.6-1.1,2.2-1.9c0.6-0.8,1.2-1.8,1.7-3c0.5-1.2,0.9-2.7,1.2-4.3l1.8-11h-5.5
		L323.3,238.2z" />
        <path class="svg--white" d="M347.4,240.3l-0.6,0.2v0l1.9-11.2h-5.5l-1.5,9c-0.1,0.8-0.5,1.4-1.1,2c-0.6,0.6-1.2,0.8-1.9,0.8
		c-0.4,0-0.7-0.2-0.9-0.5c-0.2-0.3-0.2-0.9,0-1.7l1.2-7.6c0.1-0.7,0-1.3-0.3-1.7c-0.3-0.4-0.7-0.6-1.2-0.6c-0.4,0-1.1,0.1-2,0.4
		l-4,1.3c-0.2,0.2-0.3,0.6-0.3,1c0,0.4,0.2,0.8,0.5,1c0.3,0.3,0.7,0.3,1.1,0.2l0.6-0.2v0l-1.2,7.3c-0.2,1.4,0,2.4,0.6,3.2
		c0.6,0.7,1.5,1.1,2.6,1.1c2.1,0,4-0.9,5.8-2.7h0l-0.1,0.5c0,0.7,0.1,1.2,0.4,1.5c0.3,0.3,0.7,0.5,1.1,0.5c0.5,0,1.2-0.1,2-0.4
		l4-1.3c0.2-0.2,0.4-0.5,0.4-1c0-0.4-0.2-0.8-0.5-1C348.2,240.2,347.8,240.2,347.4,240.3z" />
        <path class="svg--white" d="M281.5,224.4c0-0.1,0-0.1,0-0.2c-0.1-0.4-0.2-0.7-0.2-0.9c-0.1-0.2-0.2-0.4-0.4-0.6s-0.4-0.3-0.7-0.3
		c-0.2,0-0.4,0-0.5,0.1c-0.2,0.1-0.4,0.2-0.6,0.3c-0.2,0.1-0.3,0.2-0.4,0.3h-11.5c-0.4,0.4-0.6,0.9-0.6,1.4c0,0.4,0.1,0.6,0.3,0.8
		c0.2,0.2,0.5,0.3,0.8,0.3h0.5l-2.2,15.9h-0.4c-0.4,0-0.8,0.1-1.1,0.4c-0.3,0.3-0.5,0.7-0.5,1.2c0,0.2,0.1,0.6,0.3,0.9h8.7
		c0.4-0.4,0.6-0.9,0.6-1.4c0-0.4-0.1-0.6-0.3-0.8c-0.2-0.2-0.5-0.3-0.8-0.3h-0.6l1-6.8h2.7c0.5,0,0.8,0.1,1.1,0.3
		c0.1,0.1,0.3,0.3,0.6,0.7c0.2,0.3,0.3,0.4,0.5,0.5c0.1,0.1,0.3,0.1,0.6,0.1c0.3,0,0.6-0.1,0.8-0.3c0.2-0.2,0.3-0.5,0.3-0.8
		c0-0.3-0.2-1.4-0.7-3.1c-0.1-0.4-0.2-0.7-0.4-0.8c-0.2-0.2-0.3-0.2-0.6-0.2c-0.2,0-0.3,0-0.4,0.1c-0.1,0-0.2,0.1-0.3,0.2
		c-0.1,0.1-0.2,0.2-0.2,0.2c-0.1,0.1-0.1,0.2-0.2,0.3c-0.1,0.1-0.1,0.2-0.1,0.3h-3.3l1-6.7h3.4c0.4,0,0.7,0.1,1,0.2
		c0.3,0.2,0.5,0.3,0.6,0.5c0.1,0.2,0.3,0.5,0.5,0.9c0,0,0,0,0,0.1c0,0,0,0,0,0.1l0,0l0,0c0.2,0.3,0.3,0.5,0.4,0.7
		c0.1,0.1,0.2,0.3,0.4,0.4c0.2,0.1,0.3,0.2,0.5,0.2c0.4,0,0.6-0.1,0.8-0.3c0.2-0.2,0.3-0.5,0.3-0.9c0-0.2-0.1-0.7-0.2-1.4
		L281.5,224.4z" />
        <path class="svg--white" d="M366.9,240.2l-0.6,0.2v0l1.2-7.3c0.2-1.4,0-2.5-0.6-3.2c-0.6-0.7-1.5-1.1-2.6-1.1c-1.2,0-2.3,0.2-3.2,0.7
		c-1,0.4-1.9,1.1-2.8,2h0l0-0.5c0-0.7-0.1-1.2-0.4-1.6c-0.3-0.4-0.7-0.5-1.1-0.5c-0.4,0-1.1,0.1-2,0.4l-4,1.3
		c-0.2,0.2-0.3,0.5-0.3,1c0,0.4,0.2,0.8,0.5,1c0.3,0.2,0.7,0.3,1.1,0.2l0.6-0.2v0l-1.8,11.2h5.5l1.5-9c0.1-0.8,0.5-1.5,1.2-2
		c0.7-0.5,1.3-0.8,2-0.8c0.5,0,0.8,0.2,0.9,0.5c0.2,0.3,0.2,0.9,0,1.7l-1.2,7.6c-0.1,0.7,0,1.3,0.3,1.7c0.3,0.4,0.7,0.6,1.2,0.6
		c0.5,0,1.2-0.1,2.1-0.4l3.9-1.3c0.2-0.2,0.4-0.5,0.4-1c0-0.4-0.1-0.8-0.4-1C367.7,240.2,367.3,240.1,366.9,240.2z" />
        <path class="svg--white" d="M381.3,230.4L381.3,230.4c-1-1-2.1-1.5-3.5-1.5c-1,0-1.9,0.2-2.9,0.7c-1,0.5-1.8,1.1-2.6,2
		c-0.8,0.8-1.4,1.9-1.9,3.2c-0.5,1.3-0.7,2.7-0.7,4.1c0,1.5,0.4,2.8,1.3,3.8c0.9,1,2,1.5,3.4,1.5c1.2,0,2.2-0.3,3-0.8
		c0.9-0.6,1.6-1.2,2-1.8h0.1c-0.1,1.1-0.3,2.1-0.6,2.9c-0.3,0.8-0.7,1.5-1.2,1.9c-0.5,0.4-1,0.8-1.5,1c-0.5,0.2-1.1,0.3-1.7,0.3
		c-0.6,0-1.3-0.1-2-0.3c-0.7-0.2-1.2-0.3-1.4-0.3c-0.3,0-0.6,0.1-0.8,0.3c-0.2,0.2-0.3,0.5-0.3,0.8c0,0.7,0.4,1.3,1.3,1.8
		c0.9,0.5,2,0.7,3.4,0.7c5.8,0,9.3-3.5,10.4-10.5l1.8-11h-5.5L381.3,230.4z M380,238.2c-0.1,0.8-0.5,1.5-1.1,2.2
		c-0.6,0.6-1.3,0.9-1.9,0.9c-1,0-1.5-0.8-1.5-2.4c0-0.7,0.1-1.5,0.2-2.3c0.2-0.8,0.4-1.6,0.7-2.4c0.3-0.8,0.7-1.4,1.2-2
		s1.1-0.8,1.7-0.8c0.8,0,1.3,0.3,1.7,1L380,238.2z" />
        <path class="svg--white" d="M310.3,229.9c-1-0.7-2.3-1-3.9-1c-2,0-3.7,0.4-5.3,1.2c-1.6,0.8-2.8,1.9-3.7,3.3c-0.9,1.4-1.3,3.1-1.3,4.9
		c0,1.1,0.2,2,0.5,2.8c0.3,0.8,0.8,1.4,1.4,1.9c0.6,0.5,1.3,0.8,2.1,1c0.8,0.2,1.6,0.3,2.6,0.3c1,0,2-0.1,2.9-0.4
		c0.9-0.3,1.7-0.6,2.3-1c0.6-0.4,1.1-0.8,1.5-1.2c0.4-0.4,0.6-0.9,0.6-1.2c0-0.3-0.1-0.5-0.3-0.7c-0.2-0.2-0.4-0.3-0.7-0.3
		c-0.2,0-0.5,0.1-0.9,0.3c-0.3,0.2-0.7,0.4-1,0.7c-0.3,0.2-0.7,0.5-1.1,0.7c-0.5,0.2-0.9,0.3-1.4,0.3c-2.1,0-3.1-1.2-3-3.7
		c0.9,0.1,1.8,0.1,2.7,0c0.9-0.1,1.8-0.3,2.7-0.5c0.9-0.3,1.7-0.6,2.4-1c0.7-0.4,1.3-0.9,1.7-1.6c0.4-0.6,0.6-1.4,0.6-2.2
		C311.7,231.4,311.3,230.5,310.3,229.9z M305.4,235.4c-0.8,0.6-2.1,1-3.7,1c0.1-1.5,0.6-2.7,1.3-3.7c0.7-1,1.5-1.5,2.3-1.5
		c0.4,0,0.8,0.2,1,0.4c0.2,0.3,0.4,0.7,0.4,1.2C306.6,233.9,306.2,234.8,305.4,235.4z" />
    </g>
</svg>
