<?xml version="1.0" encoding="utf-8"?>
<!-- Generator: Adobe Illustrator 20.1.0, SVG Export Plug-In . SVG Version: 6.00 Build 0)  -->
<svg version="1.1" xmlns="http://www.w3.org/2000/svg" xmlns:xlink="http://www.w3.org/1999/xlink" x="0px" y="0px"
	 viewBox="0 0 1190.6 841.9" style="enable-background:new 0 0 1190.6 841.9;" xml:space="preserve">
<style type="text/css">
	.st0{fill:none;stroke:#000000;stroke-width:0.5;stroke-miterlimit:10;}
	.st1{fill:none;stroke:#1D1D1B;stroke-width:0.5;stroke-linecap:round;stroke-linejoin:round;stroke-dasharray:0,0.956;}
	.st2{fill:none;stroke:#1D1D1B;stroke-width:0.5;stroke-linecap:round;stroke-linejoin:round;}
	.st3{fill:none;stroke:#1D1D1B;stroke-width:0.25;stroke-dasharray:0.991,0.991;}
	.st4{fill:none;stroke:#1D1D1B;stroke-width:0.25;stroke-dasharray:0.979,0.979;}
	.st5{fill:none;stroke:#1D1D1B;stroke-width:0.25;stroke-dasharray:0.973,0.973;}
	.st6{fill:none;stroke:#1D1D1B;stroke-width:0.5;}
	.st7{display:none;fill:none;stroke:#1D1D1B;stroke-width:0.5;}
	.st8{fill:none;stroke:#1D1D1B;stroke-width:0.25;stroke-dasharray:0.734,0.484;}
	.st9{fill:none;stroke:#1D1D1B;stroke-width:0.25;stroke-dasharray:0.757,0.507;}
	.st10{fill:none;stroke:#1D1D1B;stroke-width:0.25;}
	.st11{fill:none;stroke:#1D1D1B;stroke-width:0.25;stroke-dasharray:0.765,0.515;}
	.st12{fill:#FFFFFF;stroke:#1D1D1B;stroke-width:0.5;}
	.st13{fill:#1D1D1B;}
	.st14{font-family:'Henriette-Regular';}
	.st15{font-size:11.4898px;}
	.st16{font-size:11.4899px;}
	.st17{font-size:8.6173px;}
	.st18{font-size:8.6174px;}
</style>
<g id="place">
	<path class="st0" d="M5.6,416.5l303,88.5c57,19.5,25.5,45,81,57s127.5,31.5,211.5,72s309,198,309,198"/>
	<path class="st0" d="M13.1,373c0,0,384,111,444,126s133.5,37.5,232.5,93c99,55.5,379,247.6,379,247.6"/>
	<path class="st0" d="M26.6,361c0,0,384,111,444,126c60,15,133.5,37.5,232.5,93l151.5,94.5c130.5,85.5,238.5-51,238.5-51l81-102"/>
	<path class="st0" d="M1146,37.9v154l-6.7,0.7l0.7,2.7c0,0-5.3,2-4.7,2.7c2,9.3-8,38.7-33.3,50l2.7,4.7h-92l-16-0.7l-3.3,5.3h-40.7
		l2.7,9.3l-6.7,4l-2.7-2h-30.7l-2.7,2l-13.3-4l3.3-8.7c0,0-16-0.7-19.3,0c-3.3,0.7-5.3,2-5.3,2h-17.3l-4-4L752,256.6
		c0,0,0-4.7-0.7-5.3c-16.7,0-32-30-32.7-48l-4.7-0.7l-0.7-2.7l-82,2.7l-1.3-4.7l-32,0.7l-3.3,3.3l-172,2.7l-0.7,2.7l2,2.7l-2,4
		l-18.7,0.7l-2.7-2.7l-20,2l-2,4H372l-2,4l-14.7,1.3l-2.7-4l-24.7,3.3l-1.3,3.3H312l-1.3-3.3H304l-2-3.3l-40,3.3l-4.7-2.7l-71.3,2
		l-4.7,4h-16l-4-2l-78.7,5.3l-6.7-2l-2,2.7h-8.7l-2.7-2l-8,0.7H38V42.3"/>
	<polyline class="st0" points="38,176.7 254.7,165.2 257.3,219.9 	"/>
	<polyline class="st0" points="590.7,42.3 592.7,121.2 422,123.9 422.7,204.6 	"/>
	<line class="st0" x1="715.8" y1="6.5" x2="713.3" y2="199.9"/>
	<line class="st0" x1="62.7" y1="227.9" x2="62.1" y2="175.9"/>
	<line class="st0" x1="82.7" y1="229.2" x2="85.5" y2="174.6"/>
	<line class="st0" x1="161.3" y1="223.9" x2="162.7" y2="170.1"/>
	<line class="st0" x1="186" y1="221.9" x2="184" y2="168.6"/>
	<path class="st0" d="M929.4,659.9l-55.8-3.1c-10.2-11.4-16-17.8-26.2-29.2l3.1-56.7c11.4-10.2,17.8-16,29.2-26.2l55.8,3.1
		c10.2,11.4,16,17.8,26.2,29.2l-3.1,56.7C947.2,643.9,940.8,649.7,929.4,659.9z"/>
	<path class="st0" d="M927,654.2l-50.8-2.8c-9.1-10.2-14.2-15.9-23.3-26.1l2.9-51.7c10.2-9.1,15.9-14.2,26.1-23.3l50.8,2.8
		c9.1,10.2,14.2,15.9,23.3,26.1l-2.9,51.7C942.9,640,937.2,645.1,927,654.2z"/>
	<g>
		<path class="st0" d="M935.3,603.7c0.3-7.2-5.2-13.5-13.2-16.1c-1.2-9.3-7.4-16.5-15.2-16.8c-7.2-0.3-13.6,5.3-16.1,13.4
			c-9.7,1-17.3,7.3-17.6,15.3c-0.3,7.4,5.5,13.9,13.9,16.3c1,9.7,7.3,17.3,15.3,17.6c7.6,0.3,14.2-5.8,16.5-14.5
			C928,617.5,935,611.4,935.3,603.7z"/>
		<path class="st0" d="M939.6,603.6c0.4-8.1-5.9-15.3-15-18.3c-1.4-10.5-8.4-18.7-17.3-19.1c-8.2-0.4-15.4,6-18.3,15.2
			c-11,1.1-19.6,8.3-20,17.4c-0.4,8.4,6.3,15.8,15.8,18.5c1.1,11,8.3,19.6,17.4,20c8.6,0.4,16.1-6.6,18.7-16.5
			C931.2,619.4,939.2,612.4,939.6,603.6z"/>
	</g>
	<polyline class="st0" points="174.9,813.7 190.6,798 182.8,791.4 249.5,672.3 299.3,702.4 304.5,697.2 402.7,765.2 396.1,773.1 
		424.9,792.7 430.2,790.1 444.6,801.9 447.2,811 	"/>
	<path class="st0" d="M126,807.9c27.5-20.9,34.5-38.7,35.8-54.4c1.3-15.7-13.1-49.7-24.9-66.8c-10.2-14.8-49.1-73-59.1-88
		c-1.5-2.3-2.4-3.6-2.4-3.6l0.4-1.1L38,572.5"/>
	<polygon class="st0" points="97.7,609.3 93.2,621.5 77.9,598.7 	"/>
	<polyline class="st0" points="95.6,625.4 115.1,634.4 110,646.7 	"/>
	<polyline class="st0" points="112.7,650.6 131.8,661.9 126.7,672.1 	"/>
	<polyline class="st0" points="38,617.7 57.9,604.2 121.7,699.6 36.9,757 	"/>
	<line class="st0" x1="34.9" y1="630.2" x2="62.4" y2="612"/>
	<line class="st0" x1="36.4" y1="697" x2="94.4" y2="658.6"/>
	<line class="st0" x1="36.1" y1="684.4" x2="88.1" y2="650"/>
	<line class="st0" x1="35.8" y1="744.2" x2="115.7" y2="691.3"/>
	<polyline class="st0" points="35.5,763.1 122.9,703.8 120.2,700.5 	"/>
	<polyline class="st0" points="129.1,675.4 147.7,685.6 142.3,695.5 	"/>
	
		<rect x="148.9" y="638.3" transform="matrix(0.8906 0.4548 -0.4548 0.8906 311.0503 -0.8394)" class="st0" width="16.8" height="15.6"/>
	
		<rect x="194.4" y="663.4" transform="matrix(0.8906 0.4548 -0.4548 0.8906 327.4615 -18.7787)" class="st0" width="16.8" height="15.6"/>
	<circle class="st0" cx="72" cy="584.1" r="5.1"/>
	<circle class="st0" cx="118.1" cy="609.3" r="5.1"/>
	<circle class="st0" cx="165.1" cy="633.8" r="5.1"/>
	<circle class="st0" cx="209.9" cy="658.9" r="5.1"/>
	<polyline class="st0" points="1028.8,252.5 1028.8,265.1 1061.6,265.1 1061.6,263.6 1096.6,263.6 1096.6,252.6 	"/>
	<polyline class="st0" points="1031.9,252.4 1031.9,262.6 1060,262.6 1060,261 1092.5,261 1092.5,252.6 	"/>
	<polyline class="st0" points="1070.9,252.4 1070.9,258.4 1088.9,258.4 1088.9,252.5 	"/>
	<polyline class="st0" points="1055.8,252.4 1055.8,258.9 1036.9,258.9 1036.9,252.6 	"/>
	<polyline class="st0" points="918.6,268.3 918.6,272.8 939,272.8 939,268.4 	"/>
	<polyline class="st0" points="604.8,198.3 604.8,203.4 621,203.4 621,197.9 	"/>
	<polygon class="st0" points="462.1,208.6 462.1,213.4 466.9,213.4 466.9,226.9 462.1,226.9 462.1,231.5 523.1,231.5 523.1,208.6 	
		"/>
	<polyline class="st0" points="110.3,227.4 110.6,230.7 136.6,229.2 135.9,225.4 	"/>
</g>
<g id="objects">
	<line class="st1" x1="389.5" y1="305.9" x2="389.5" y2="317.5"/>
	<line class="st1" x1="390.9" y1="318.2" x2="402.5" y2="318.2"/>
	<line class="st1" x1="403.2" y1="316.8" x2="403.2" y2="305.2"/>
	<line class="st1" x1="401.9" y1="304.5" x2="390.2" y2="304.5"/>
	<path class="st2" d="M389.5,304.5L389.5,304.5 M403.2,304.5L403.2,304.5 M403.2,318.2L403.2,318.2 M389.5,318.2L389.5,318.2"/>
	<line class="st3" x1="260.7" y1="261.2" x2="413" y2="256.7"/>
	<line class="st4" x1="413" y1="256.3" x2="413" y2="212.7"/>
	<line class="st5" x1="258.3" y1="222.1" x2="260.7" y2="262.5"/>
	<rect x="1100.5" y="423" class="st6" width="25.5" height="32.1"/>
	<rect x="536.3" y="207" class="st7" width="40" height="25.5"/>
	<line class="st8" x1="1077.5" y1="474.8" x2="1099.9" y2="474.8"/>
	<line class="st9" x1="1100.8" y1="473.5" x2="1100.8" y2="455.7"/>
	<line class="st8" x1="1099.5" y1="454.8" x2="1077.1" y2="454.8"/>
	<path class="st10" d="M1076.8,454.8h-0.5v0.5 M1100.8,455.3v-0.5h-0.5 M1100.2,474.8h0.5v-0.5 M1076.3,474.2v0.5h0.5"/>
	<line class="st11" x1="1050.4" y1="600.9" x2="1048.6" y2="611.4"/>
	<line class="st11" x1="1049.7" y1="612.5" x2="1060.2" y2="614.4"/>
	<line class="st11" x1="1061.3" y1="613.3" x2="1063.2" y2="602.7"/>
	<line class="st11" x1="1062.1" y1="601.6" x2="1051.6" y2="599.8"/>
	<path class="st10" d="M1051.2,599.7l-0.5-0.1l-0.1,0.5 M1063.2,602.4l0.1-0.5l-0.5-0.1 M1060.6,614.4l0.5,0.1l0.1-0.5
		 M1048.5,611.7l-0.1,0.5l0.5,0.1"/>
	<line class="st1" x1="1108.9" y1="470.9" x2="1120.6" y2="470.9"/>
	<line class="st1" x1="1121.2" y1="469.5" x2="1121.2" y2="457.8"/>
	<line class="st1" x1="1119.9" y1="457.2" x2="1108.2" y2="457.2"/>
	<line class="st1" x1="1107.5" y1="458.5" x2="1107.5" y2="470.2"/>
	<path class="st2" d="M1107.5,470.9L1107.5,470.9 M1107.5,457.2L1107.5,457.2 M1121.2,457.2L1121.2,457.2 M1121.2,470.9
		L1121.2,470.9"/>
	<line class="st1" x1="1108.6" y1="486.7" x2="1120.3" y2="486.7"/>
	<line class="st1" x1="1120.9" y1="485.3" x2="1120.9" y2="473.6"/>
	<line class="st1" x1="1119.6" y1="473" x2="1107.9" y2="473"/>
	<line class="st1" x1="1107.2" y1="474.3" x2="1107.2" y2="486"/>
	<path class="st2" d="M1107.2,486.7L1107.2,486.7 M1107.2,473L1107.2,473 M1120.9,473L1120.9,473 M1120.9,486.7L1120.9,486.7"/>
	<circle class="st6" cx="260.7" cy="261.2" r="2"/>
	<circle class="st6" cx="312.8" cy="260.2" r="2"/>
	<circle class="st6" cx="371.8" cy="257.8" r="2"/>
	<circle class="st6" cx="413" cy="256.3" r="2"/>
	<circle class="st6" cx="1092.5" cy="505" r="12.2"/>
	<line class="st9" x1="1076.3" y1="456.1" x2="1076.3" y2="473.8"/>
</g>
<g id="stands">
	
		<rect id="stand59" x="568.2" y="408.9" transform="matrix(0.1564 -0.9877 0.9877 0.1564 70.3935 932.283)" class="st12" width="25.5" height="32.1"/>
	
		<rect id="stand58" x="604.5" y="414.8" transform="matrix(0.1392 -0.9903 0.9903 0.1392 104.7325 982.0912)" class="st12" width="25.5" height="32.1"/>
	
		<rect id="stand57" x="640.1" y="419.8" transform="matrix(0.1046 -0.9945 0.9945 0.1046 151.1512 1039.6057)" class="st12" width="25.5" height="32.1"/>
	
		<rect id="stand56" x="675.5" y="423.7" transform="matrix(6.975923e-02 -0.9976 0.9976 6.975923e-02 201.603 1095.5668)" class="st12" width="25.5" height="32.1"/>
	<rect id="stand55" x="709.2" y="428.4" class="st12" width="32.1" height="25.5"/>
	<rect id="stand54" x="747" y="428.3" class="st12" width="65.4" height="25.5"/>
	<polygon id="stand53" class="st12" points="825,397.5 821.4,449.6 860.3,452.3 868.8,440 880.3,447.1 899.4,448.4 918.9,439.7 
		920.2,420.9 902.1,409.5 883.1,408.2 870.6,413.6 863.9,400.2 	"/>
	<rect id="stand52" x="783.5" y="388.5" class="st12" width="32.1" height="25.5"/>
	<rect id="stand51" x="748.4" y="388.5" class="st12" width="32.1" height="25.5"/>
	<rect id="stand50" x="711.7" y="388.5" class="st12" width="32.1" height="25.5"/>
	
		<rect id="stand49" x="678" y="383.7" transform="matrix(0.1046 -0.9945 0.9945 0.1046 220.9896 1044.8556)" class="st12" width="25.5" height="32.1"/>
	
		<rect id="stand48" x="641.5" y="379.8" transform="matrix(0.1046 -0.9945 0.9945 0.1046 192.135 1005.1396)" class="st12" width="25.5" height="32.1"/>
	
		<rect id="stand47" x="606.1" y="375" transform="matrix(0.1564 -0.9877 0.9877 0.1564 135.8149 941.1174)" class="st12" width="25.5" height="32.1"/>
	
		<rect id="stand46" x="571.1" y="369.5" transform="matrix(0.1564 -0.9877 0.9877 0.1564 111.7383 901.8291)" class="st12" width="25.5" height="32.1"/>
	
		<rect id="stand45" x="524.2" y="384.6" transform="matrix(0.2588 -0.9659 0.9659 0.2588 19.0407 819.8099)" class="st12" width="39" height="25.7"/>
	
		<rect id="stand44" x="198.7" y="365.1" transform="matrix(0.2588 -0.9659 0.9659 0.2588 -224.2673 496.7298)" class="st12" width="25.7" height="58.8"/>
	
		<rect id="stand43" x="255" y="395.9" transform="matrix(0.2924 -0.9563 0.9563 0.2924 -204.4365 547.561)" class="st12" width="25.5" height="32.1"/>
	
		<rect id="stand42" x="289" y="406.1" transform="matrix(0.2924 -0.9563 0.9563 0.2924 -190.1211 587.3209)" class="st12" width="25.5" height="32.1"/>
	
		<rect id="stand41" x="331.9" y="418" transform="matrix(0.2924 -0.9563 0.9563 0.2924 -171.1783 636.701)" class="st12" width="25.5" height="32.1"/>
	
		<rect id="stand40" x="366.8" y="427.5" transform="matrix(0.2924 -0.9563 0.9563 0.2924 -155.5524 676.8433)" class="st12" width="25.5" height="32.1"/>
	
		<rect id="stand39" x="410.5" y="439.3" transform="matrix(0.2588 -0.9659 0.9659 0.2588 -126.126 746.329)" class="st12" width="25.5" height="32.1"/>
	
		<rect id="stand38" x="444.8" y="448.6" transform="matrix(0.2924 -0.9563 0.9563 0.2924 -120.5323 766.3285)" class="st12" width="25.5" height="32.1"/>
	
		<rect id="stand37" x="487.4" y="461.1" transform="matrix(0.2924 -0.9563 0.9563 0.2924 -102.4145 815.9456)" class="st12" width="25.5" height="32.1"/>
	
		<rect id="stand36" x="522.6" y="471" transform="matrix(0.2924 -0.9563 0.9563 0.2924 -86.9213 856.5815)" class="st12" width="25.5" height="32.1"/>
	
		<rect id="stand35" x="563.4" y="485" transform="matrix(0.3584 -0.9336 0.9336 0.3584 -98.126 859.372)" class="st12" width="25.5" height="32.1"/>
	
		<rect id="stand34" x="598" y="498.8" transform="matrix(0.3907 -0.9205 0.9205 0.3907 -101.7775 875.8646)" class="st12" width="25.5" height="32.1"/>
	
		<rect id="stand33" x="638.5" y="516.4" transform="matrix(0.4384 -0.8988 0.8988 0.4384 -112.8158 884.3297)" class="st12" width="25.5" height="32.1"/>
	
		<rect id="stand32" x="686.5" y="532.5" transform="matrix(0.515 -0.8572 0.8572 0.515 -138.475 869.7483)" class="st12" width="25.7" height="49.6"/>
	
		<rect id="stand31" x="724.6" y="556.5" transform="matrix(0.515 -0.8572 0.8572 0.515 -132.852 917.1907)" class="st12" width="39" height="39"/>
	
		<rect id="stand30" x="813.4" y="606.1" transform="matrix(0.9962 -8.715923e-02 8.715923e-02 0.9962 -51.0812 74.3709)" class="st12" width="25.5" height="32.1"/>
	
		<rect id="stand29" x="810.5" y="568.3" transform="matrix(0.1218 -0.9925 0.9925 0.1218 149.1185 1330.6112)" class="st12" width="32.1" height="25.5"/>
	
		<rect id="stand28" x="833.2" y="526.9" transform="matrix(0.7432 -0.6691 0.6691 0.7432 -142.953 706.7984)" class="st12" width="32.1" height="25.5"/>
	
		<rect id="stand27" x="874.4" y="509.4" transform="matrix(0.9994 -3.490802e-02 3.490802e-02 0.9994 -17.684 31.3999)" class="st12" width="32.1" height="25.5"/>
	
		<rect id="stand26" x="924.9" y="507.1" transform="matrix(0.3907 -0.9205 0.9205 0.3907 88.8832 1187.5522)" class="st12" width="33.4" height="39"/>
	
		<rect id="stand25" x="965.4" y="548.1" transform="matrix(0.9962 -8.715923e-02 8.715923e-02 0.9962 -45.45 87.4029)" class="st12" width="25.5" height="32.1"/>
	<rect id="stand24" x="966.6" y="591.7" class="st12" width="25.7" height="25.7"/>
	
		<rect id="stand23" x="939.7" y="639.3" transform="matrix(0.7314 -0.682 0.682 0.7314 -186.204 831.6011)" class="st12" width="45.6" height="25.7"/>
	
		<rect id="stand22" x="1051.1" y="573.4" transform="matrix(0.2588 -0.9659 0.9659 0.2588 224.7477 1465.2581)" class="st12" width="32.1" height="25.5"/>
	<polygon id="stand21" class="st12" points="1076,524.9 1061.3,532.4 1056.3,548 1063.7,562.7 1079.4,567.8 1094,560.3 
		1099.1,544.7 1091.6,530 	"/>
	<rect id="stand20" x="1068.2" y="402.9" class="st12" width="32.4" height="52.2"/>
	
		<rect id="stand19" x="1040.8" y="321.5" transform="matrix(0.1736 -0.9848 0.9848 0.1736 538.1469 1316.4683)" class="st12" width="25.5" height="32.1"/>
	<rect id="stand18" x="970.9" y="324.4" class="st12" width="51.7" height="38.6"/>
	<rect id="stand17" x="934.8" y="324.2" class="st12" width="32.1" height="25.5"/>
	<rect id="stand16" x="889.8" y="324.4" class="st12" width="32.1" height="25.5"/>
	<rect id="stand15" x="854.7" y="323.3" class="st12" width="32.1" height="25.5"/>
	<rect id="stand14" x="819.6" y="323.2" class="st12" width="32.1" height="25.5"/>
	
		<rect id="stand13" x="777.9" y="316" transform="matrix(0.1046 -0.9945 0.9945 0.1046 377.7651 1083.6232)" class="st12" width="25.5" height="32.1"/>
	
		<rect id="stand12" x="742.1" y="309.9" transform="matrix(0.1736 -0.9848 0.9848 0.1736 302.7786 1012.6813)" class="st12" width="25.5" height="32.1"/>
	
		<rect id="stand11" x="705.5" y="303.7" transform="matrix(0.1218 -0.9925 0.9925 0.1218 313.4521 993.6526)" class="st12" width="25.5" height="32.1"/>
	
		<rect id="stand10" x="670.3" y="298.5" transform="matrix(0.1736 -0.9848 0.9848 0.1736 254.6268 932.5786)" class="st12" width="25.5" height="32.1"/>
	
		<rect id="stand9" x="635" y="292.4" transform="matrix(0.2249 -0.9744 0.9744 0.2249 201.5296 870.2039)" class="st12" width="25.5" height="32.1"/>
	
		<rect id="stand8" x="586.9" y="284.1" transform="matrix(0.1046 -0.9945 0.9945 0.1046 238.5083 865.0693)" class="st12" width="25.5" height="32.1"/>
	
		<rect id="stand7" x="550.8" y="281" transform="matrix(6.976318e-02 -0.9976 0.9976 6.976318e-02 227.9067 838.4657)" class="st12" width="25.5" height="32.1"/>
	<rect id="stand6" x="510.9" y="282.5" class="st12" width="32.1" height="25.5"/>
	
		<rect id="stand5" x="474.3" y="288.1" transform="matrix(0.9613 -0.2757 0.2757 0.9613 -63.9237 146.8148)" class="st12" width="32.1" height="25.5"/>
	
		<rect id="stand4" x="440.5" y="297.7" transform="matrix(0.9613 -0.2757 0.2757 0.9613 -67.9051 137.8728)" class="st12" width="32.1" height="25.5"/>
	
		<rect id="stand3" x="405.2" y="304.4" transform="matrix(0.9994 -3.490802e-02 3.490802e-02 0.9994 -10.8134 14.8971)" class="st12" width="32.1" height="25.5"/>
	<rect id="stand2" x="335" y="304.6" class="st12" width="52.2" height="25.5"/>
	
		<rect id="stand1" x="148.2" y="284" transform="matrix(0.1392 -0.9903 0.9903 0.1392 -157.9874 422.5499)" class="st12" width="31.7" height="36.4"/>
</g>
<g id="text">
	<text transform="matrix(0.7432 -0.6691 0.6691 0.7432 1068.548 683.2041)"><tspan x="0" y="0" class="st13 st14 st15">R</tspan><tspan x="8.1" y="0" class="st13 st14 st15">enn</tspan><tspan x="27.4" y="0" class="st13 st14 st15">g</tspan><tspan x="33.4" y="0" class="st13 st14 st15">a</tspan><tspan x="39.6" y="0" class="st13 st14 st15">ss</tspan><tspan x="50.2" y="0" class="st13 st14 st15">e</tspan></text>
	<text transform="matrix(1 0 0 1 1006.9905 504.9877)"><tspan x="0" y="0" class="st13 st14 st15">Ch</tspan><tspan x="14.1" y="0" class="st13 st14 st15">r</tspan><tspan x="18.9" y="0" class="st13 st14 st15">istb</tspan><tspan x="38" y="0" class="st13 st14 st15">a</tspan><tspan x="43.9" y="0" class="st13 st14 st15">u</tspan><tspan x="50.5" y="0" class="st13 st14 st15">m</tspan></text>
	<text transform="matrix(1 0 0 1 879.1673 606.766)"><tspan x="0" y="0" class="st13 st14 st15">Brunne</tspan><tspan x="38.3" y="0" class="st13 st14 st15">n</tspan></text>
	<text transform="matrix(0.9336 0.3584 -0.3584 0.9336 518.3282 548.398)"><tspan x="0" y="0" class="st13 st14 st15">F</tspan><tspan x="6.9" y="0" class="st13 st14 st15">reyun</tspan><tspan x="36.9" y="0" class="st13 st14 st15">g</tspan></text>
	<text transform="matrix(1 0 0 1 843.1243 545.0756)"><tspan x="0" y="0" class="st13 st14 st15">2</tspan><tspan x="6.5" y="0" class="st13 st14 st15">8</tspan></text>
	<text transform="matrix(0.9997 -2.617000e-02 2.617000e-02 0.9997 528.2108 188.2121)"><tspan x="0" y="0" class="st13 st14 st16">Benediktus</tspan><tspan x="58.4" y="0" class="st13 st14 st16">h</tspan><tspan x="65" y="0" class="st13 st14 st16">a</tspan><tspan x="70.9" y="0" class="st13 st14 st16">u</tspan><tspan x="77.4" y="0" class="st13 st14 st16">s</tspan></text>
	<text transform="matrix(1 0 0 1 792.8138 241.2914)"><tspan x="0" y="0" class="st13 st14 st15">Ap</tspan><tspan x="14.2" y="0" class="st13 st14 st15">o</tspan><tspan x="20.3" y="0" class="st13 st14 st15">the</tspan><tspan x="36.8" y="0" class="st13 st14 st15">k</tspan><tspan x="43.1" y="0" class="st13 st14 st15">e</tspan></text>
	<text transform="matrix(1 0 0 1 891.3978 241.2914)"><tspan x="0" y="0" class="st13 st14 st15">Ein</tspan><tspan x="17.5" y="0" class="st13 st14 st15">g</tspan><tspan x="23.6" y="0" class="st13 st14 st15">a</tspan><tspan x="29.8" y="0" class="st13 st14 st15">ng N</tspan><tspan x="54.8" y="0" class="st13 st14 st15">r</tspan><tspan x="59.4" y="0" class="st13 st14 st15">.</tspan><tspan x="62.3" y="0" class="st13 st14 st15">7</tspan></text>
	<text transform="matrix(1 0 0 1 1041.8342 241.2914)"><tspan x="0" y="0" class="st13 st14 st15">K</tspan><tspan x="8.1" y="0" class="st13 st14 st15">otta</tspan><tspan x="28.6" y="0" class="st13 st14 st15">s</tspan></text>
	<text transform="matrix(0.9997 -2.617000e-02 2.617000e-02 0.9997 222.9403 135.6292)"><tspan x="0" y="0" class="st13 st14 st16">S</tspan><tspan x="7.1" y="0" class="st13 st14 st16">ch</tspan><tspan x="19.1" y="0" class="st13 st14 st16">ottenki</tspan><tspan x="56" y="0" class="st13 st14 st16">r</tspan><tspan x="60.7" y="0" class="st13 st14 st16">c</tspan><tspan x="66.2" y="0" class="st13 st14 st16">h</tspan><tspan x="72.8" y="0" class="st13 st14 st16">e</tspan></text>
	<text transform="matrix(0.9997 -2.618000e-02 2.618000e-02 0.9997 290.9117 242.0044)"><tspan x="0" y="0" class="st13 st14 st17">J</tspan><tspan x="4.7" y="0" class="st13 st14 st17">a</tspan><tspan x="9.3" y="0" class="st13 st14 st17">so</tspan><tspan x="17.9" y="0" class="st13 st14 st17">m</tspan><tspan x="25.4" y="0" class="st13 st14 st17">i</tspan><tspan x="28.1" y="0" class="st13 st14 st17">r</tspan><tspan x="31.7" y="0" class="st13 st14 st17">gott-Denk</tspan><tspan x="70.9" y="0" class="st13 st14 st17">m</tspan><tspan x="78.4" y="0" class="st13 st14 st17">a</tspan><tspan x="83" y="0" class="st13 st14 st17">l</tspan></text>
	<text transform="matrix(1 0 0 1 473.0106 217.4501)"><tspan x="0" y="0" class="st13 st14 st18">Ab</tspan><tspan x="10.5" y="0" class="st13 st14 st18">g</tspan><tspan x="15" y="0" class="st13 st14 st18">a</tspan><tspan x="19.7" y="0" class="st13 st14 st18">n</tspan><tspan x="24.7" y="0" class="st13 st14 st18">g</tspan></text>
	<text transform="matrix(1 0 0 1 474.3294 226.0672)"><tspan x="0" y="0" class="st13 st14 st18">G</tspan><tspan x="6" y="0" class="st13 st14 st18">a</tspan><tspan x="10.7" y="0" class="st13 st14 st18">r</tspan><tspan x="14.1" y="0" class="st13 st14 st18">ag</tspan><tspan x="23.5" y="0" class="st13 st14 st18">e</tspan></text>
	<text transform="matrix(1 0 0 1 539.8553 218.8544)"><tspan x="0" y="0" class="st13 st14 st18">Ges</tspan><tspan x="14.3" y="0" class="st13 st14 st18">ch</tspan><tspan x="23.4" y="0" class="st13 st14 st18">i</tspan><tspan x="26" y="0" class="st13 st14 st18">r</tspan><tspan x="29.6" y="0" class="st13 st14 st18">r</tspan></text>
	<text transform="matrix(1 0 0 1 545.0701 227.4725)"><tspan x="0" y="0" class="st13 st14 st18">Mo</tspan><tspan x="12" y="0" class="st13 st14 st18">bi</tspan><tspan x="19.4" y="0" class="st13 st14 st18">l</tspan></text>
	<text transform="matrix(1 0 0 1 161.9754 305.5765)" class="st13 st14 st15">1</text>
	<text transform="matrix(1 0 0 1 958.3431 653.9252)"><tspan x="0" y="0" class="st13 st14 st15">2</tspan><tspan x="6.5" y="0" class="st13 st14 st15">3</tspan></text>
	<text transform="matrix(1 0 0 1 820.3626 585.847)"><tspan x="0" y="0" class="st13 st14 st15">2</tspan><tspan x="6.5" y="0" class="st13 st14 st15">9</tspan></text>
	<text transform="matrix(1 0 0 1 935.2835 531.3383)"><tspan x="0" y="0" class="st13 st14 st15">2</tspan><tspan x="6.5" y="0" class="st13 st14 st15">6</tspan></text>
	<text transform="matrix(1 0 0 1 972.7757 571.5521)"><tspan x="0" y="0" class="st13 st14 st15">2</tspan><tspan x="6.5" y="0" class="st13 st14 st15">5</tspan></text>
	<text transform="matrix(1 0 0 1 1060.4993 588.4545)"><tspan x="0" y="0" class="st13 st14 st15">2</tspan><tspan x="6.5" y="0" class="st13 st14 st15">2</tspan></text>
	<text transform="matrix(1 0 0 1 1072.1389 547.9535)"><tspan x="0" y="0" class="st13 st14 st15">2</tspan><tspan x="6.5" y="0" class="st13 st14 st15">1</tspan></text>
	<text transform="matrix(1 0 0 1 719.6605 445.4945)"><tspan x="0" y="0" class="st13 st14 st15">5</tspan><tspan x="6.4" y="0" class="st13 st14 st15">5</tspan></text>
	<text transform="matrix(0.9976 6.975999e-02 -6.975999e-02 0.9976 681.74 443.5042)"><tspan x="0" y="0" class="st13 st14 st15">5</tspan><tspan x="6.4" y="0" class="st13 st14 st15">6</tspan></text>
	<text transform="matrix(0.9945 0.1045 -0.1045 0.9945 647.0019 439.5175)"><tspan x="0" y="0" class="st13 st14 st16">5</tspan><tspan x="6.4" y="0" class="st13 st14 st16">7</tspan></text>
	<text transform="matrix(1 0 0 1 819.8187 624.6527)"><tspan x="0" y="0" class="st13 st14 st15">3</tspan><tspan x="6.4" y="0" class="st13 st14 st15">0</tspan></text>
	<text transform="matrix(1 0 0 1 884.9534 430.1844)"><tspan x="0" y="0" class="st13 st14 st15">5</tspan><tspan x="6.4" y="0" class="st13 st14 st15">3</tspan></text>
	<text transform="matrix(1 0 0 1 536.0193 400.7948)"><tspan x="0" y="0" class="st13 st14 st15">4</tspan><tspan x="6.6" y="0" class="st13 st14 st15">5</tspan></text>
	<text transform="matrix(0.9994 -3.490000e-02 3.490000e-02 0.9994 884.9711 526.6273)"><tspan x="0" y="0" class="st13 st14 st15">2</tspan><tspan x="6.5" y="0" class="st13 st14 st15">7</tspan></text>
	<text transform="matrix(0 -1 1 0 1117.6008 469.6361)"><tspan x="0" y="0" class="st13 st14 st18">w</tspan><tspan x="5.8" y="0" class="st13 st14 st18">c</tspan></text>
	<text transform="matrix(0 -1 1 0 1117.303 485.4476)"><tspan x="0" y="0" class="st13 st14 st18">w</tspan><tspan x="5.8" y="0" class="st13 st14 st18">c</tspan></text>
	<text transform="matrix(1 0 0 1 1077.9387 433.2958)"><tspan x="0" y="0" class="st13 st14 st15">2</tspan><tspan x="6.5" y="0" class="st13 st14 st15">0</tspan></text>
	<text transform="matrix(1 0 0 1 973.473 608.8578)"><tspan x="0" y="0" class="st13 st14 st15">2</tspan><tspan x="6.5" y="0" class="st13 st14 st15">4</tspan></text>
	<text transform="matrix(0.8572 0.515 -0.515 0.8572 737.7785 577.1989)"><tspan x="0" y="0" class="st13 st14 st15">3</tspan><tspan x="6.4" y="0" class="st13 st14 st15">1</tspan></text>
	<text transform="matrix(0.8572 0.515 -0.515 0.8572 692.427 558.0798)"><tspan x="0" y="0" class="st13 st14 st15">3</tspan><tspan x="6.4" y="0" class="st13 st14 st15">2</tspan></text>
	<text transform="matrix(0.9659 0.2588 -0.2588 0.9659 204.31 396.9552)"><tspan x="0" y="0" class="st13 st14 st15">4</tspan><tspan x="6.6" y="0" class="st13 st14 st15">4</tspan></text>
	<text transform="matrix(0.9848 0.1736 -0.1736 0.9848 1047.3218 340.8673)"><tspan x="0" y="0" class="st13 st14 st16">1</tspan><tspan x="5.2" y="0" class="st13 st14 st16">9</tspan></text>
	<text transform="matrix(1 0 0 1 900.2786 341.4281)"><tspan x="0" y="0" class="st13 st14 st15">1</tspan><tspan x="5.2" y="0" class="st13 st14 st15">6</tspan></text>
	<text transform="matrix(1 0 0 1 793.93 405.5155)"><tspan x="0" y="0" class="st13 st14 st15">5</tspan><tspan x="6.4" y="0" class="st13 st14 st15">2</tspan></text>
	<text transform="matrix(1 0 0 1 759.4798 405.5155)"><tspan x="0" y="0" class="st13 st14 st15">5</tspan><tspan x="6.4" y="0" class="st13 st14 st15">1</tspan></text>
	<text transform="matrix(0.9613 -0.2756 0.2756 0.9613 488.9276 305.6623)" class="st13 st14 st15">5</text>
	<text transform="matrix(0.9613 -0.2756 0.2756 0.9613 454.7567 315.4618)" class="st13 st14 st15">4</text>
	<text transform="matrix(0.9903 0.1392 -0.1392 0.9903 610.7183 434.2935)"><tspan x="0" y="0" class="st13 st14 st15">5</tspan><tspan x="6.4" y="0" class="st13 st14 st15">8</tspan></text>
	<text transform="matrix(1 0 0 1 721.3138 405.5155)"><tspan x="0" y="0" class="st13 st14 st15">5</tspan><tspan x="6.4" y="0" class="st13 st14 st15">0</tspan></text>
	<text transform="matrix(0.9945 0.1045 -0.1045 0.9945 683.7461 403.2459)"><tspan x="0" y="0" class="st13 st14 st16">4</tspan><tspan x="6.6" y="0" class="st13 st14 st16">9</tspan></text>
	<text transform="matrix(0.9945 0.1045 -0.1045 0.9945 647.4695 399.4324)"><tspan x="0" y="0" class="st13 st14 st16">4</tspan><tspan x="6.6" y="0" class="st13 st14 st16">8</tspan></text>
	<text transform="matrix(0.9877 0.1564 -0.1564 0.9877 612.489 394.4412)"><tspan x="0" y="0" class="st13 st14 st15">4</tspan><tspan x="6.4" y="0" class="st13 st14 st15">7</tspan></text>
	<text transform="matrix(0.9877 0.1564 -0.1564 0.9877 574.1796 428.2547)"><tspan x="0" y="0" class="st13 st14 st15">5</tspan><tspan x="6.4" y="0" class="st13 st14 st15">9</tspan></text>
	<text transform="matrix(0.9877 0.1564 -0.1564 0.9877 576.7689 388.785)"><tspan x="0" y="0" class="st13 st14 st15">4</tspan><tspan x="6.3" y="0" class="st13 st14 st15">6</tspan></text>
	<text transform="matrix(0.9945 0.1045 -0.1045 0.9945 596.0856 303.983)" class="st13 st14 st16">8</text>
	<text transform="matrix(1 0 0 1 865.8265 340.4081)"><tspan x="0" y="0" class="st13 st14 st15">1</tspan><tspan x="5.2" y="0" class="st13 st14 st15">5</tspan></text>
	<text transform="matrix(0.9976 6.975999e-02 -6.975999e-02 0.9976 560.5817 301.0983)" class="st13 st14 st15">7</text>
	<text transform="matrix(1 0 0 1 830.3392 340.2469)"><tspan x="0" y="0" class="st13 st14 st15">1</tspan><tspan x="5.2" y="0" class="st13 st14 st15">4</tspan></text>
	<text transform="matrix(1 0 0 1 523.5482 299.5585)" class="st13 st14 st15">6</text>
	<text transform="matrix(0.9994 -3.490000e-02 3.490000e-02 0.9994 418.6961 321.5167)" class="st13 st14 st15">3</text>
	<text transform="matrix(1 0 0 1 773.8167 445.3363)"><tspan x="0" y="0" class="st13 st14 st15">5</tspan><tspan x="6.4" y="0" class="st13 st14 st15">4</tspan></text>
	<text transform="matrix(1 0 0 1 358.368 321.6967)" class="st13 st14 st15">2</text>
	<text transform="matrix(0.9945 0.1045 -0.1045 0.9945 785.3646 335.7447)"><tspan x="0" y="0" class="st13 st14 st16">1</tspan><tspan x="5.2" y="0" class="st13 st14 st16">3</tspan></text>
	<text transform="matrix(0.9848 0.1736 -0.1736 0.9848 749.1838 329.3239)"><tspan x="0" y="0" class="st13 st14 st16">1</tspan><tspan x="5.2" y="0" class="st13 st14 st16">2</tspan></text>
	<text transform="matrix(0.9926 0.1219 -0.1219 0.9926 713.5828 323.4334)"><tspan x="0" y="0" class="st13 st14 st16">1</tspan><tspan x="5.2" y="0" class="st13 st14 st16">1</tspan></text>
	<text transform="matrix(0.9848 0.1736 -0.1736 0.9848 676.6179 317.8309)"><tspan x="0" y="0" class="st13 st14 st16">1</tspan><tspan x="5.2" y="0" class="st13 st14 st16">0</tspan></text>
	<text transform="matrix(0.9744 0.2249 -0.2249 0.9744 643.5059 311.8771)" class="st13 st14 st16">9</text>
	<text transform="matrix(0.8988 0.4384 -0.4384 0.8988 644.374 533.8754)"><tspan x="0" y="0" class="st13 st14 st16">3</tspan><tspan x="6.4" y="0" class="st13 st14 st16">3</tspan></text>
	<text transform="matrix(0.9205 0.3907 -0.3907 0.9205 603.6852 516.522)"><tspan x="0" y="0" class="st13 st14 st15">3</tspan><tspan x="6.4" y="0" class="st13 st14 st15">4</tspan></text>
	<text transform="matrix(0.9336 0.3584 -0.3584 0.9336 569.4594 503.0637)"><tspan x="0" y="0" class="st13 st14 st15">3</tspan><tspan x="6.4" y="0" class="st13 st14 st15">5</tspan></text>
	<text transform="matrix(0.9563 0.2924 -0.2924 0.9563 528.1401 489.3661)"><tspan x="0" y="0" class="st13 st14 st15">3</tspan><tspan x="6.4" y="0" class="st13 st14 st15">6</tspan></text>
	<text transform="matrix(0.9563 0.2924 -0.2924 0.9563 493.61 479.7227)"><tspan x="0" y="0" class="st13 st14 st15">3</tspan><tspan x="6.4" y="0" class="st13 st14 st15">7</tspan></text>
	<text transform="matrix(0.9563 0.2924 -0.2924 0.9563 371.7838 445.6912)"><tspan x="0" y="0" class="st13 st14 st15">4</tspan><tspan x="6.6" y="0" class="st13 st14 st15">0</tspan></text>
	<text transform="matrix(0.9563 0.2924 -0.2924 0.9563 294.7442 424.5133)"><tspan x="0" y="0" class="st13 st14 st15">4</tspan><tspan x="6.6" y="0" class="st13 st14 st15">2</tspan></text>
	<text transform="matrix(0.9659 0.2588 -0.2588 0.9659 416.1782 457.847)"><tspan x="0" y="0" class="st13 st14 st15">3</tspan><tspan x="6.4" y="0" class="st13 st14 st15">9</tspan></text>
	<text transform="matrix(0.9563 0.2924 -0.2924 0.9563 338.2628 436.6117)"><tspan x="0" y="0" class="st13 st14 st15">4</tspan><tspan x="6.6" y="0" class="st13 st14 st15">1</tspan></text>
	<text transform="matrix(0.9563 0.2924 -0.2924 0.9563 260.8236 414.3395)"><tspan x="0" y="0" class="st13 st14 st15">4</tspan><tspan x="6.6" y="0" class="st13 st14 st15">3</tspan></text>
	<text transform="matrix(0.9563 0.2924 -0.2924 0.9563 450.5457 467.0106)"><tspan x="0" y="0" class="st13 st14 st15">3</tspan><tspan x="6.4" y="0" class="st13 st14 st15">8</tspan></text>
	<text transform="matrix(1 0 0 1 945.972 341.2645)"><tspan x="0" y="0" class="st13 st14 st15">1</tspan><tspan x="5.2" y="0" class="st13 st14 st15">7</tspan></text>
	<text transform="matrix(1 0 0 1 979.4984 341.0878)"><tspan x="0" y="0" class="st13 st14 st15">Bü</tspan><tspan x="14.3" y="0" class="st13 st14 st15">h</tspan><tspan x="20.9" y="0" class="st13 st14 st15">n</tspan><tspan x="27.7" y="0" class="st13 st14 st15">e</tspan></text>
	<text transform="matrix(1 0 0 1 991.4261 354.8759)"><tspan x="0" y="0" class="st13 st14 st15">1</tspan><tspan x="5.2" y="0" class="st13 st14 st15">8</tspan></text>
	<text transform="matrix(1 0 0 1 390.743 314.579)"><tspan x="0" y="0" class="st13 st14 st18">w</tspan><tspan x="5.8" y="0" class="st13 st14 st18">c</tspan></text>
</g>
</svg>
